<mxfile host="www.draw.io" modified="2019-12-02T21:43:05.265Z" agent="Mozilla/5.0 (Macintosh; Intel Mac OS X 10_14_6) AppleWebKit/537.36 (KHTML, like Gecko) Chrome/78.0.3904.97 Safari/537.36" etag="9d_VCPM6iLdPE_9zQAPj" version="12.3.5" type="github" pages="1">
  <diagram id="iFBTR7gXfTiIHQD0XVNO" name="Page-1">
    <mxGraphModel dx="2722" dy="772" grid="1" gridSize="10" guides="1" tooltips="1" connect="1" arrows="1" fold="1" page="1" pageScale="1" pageWidth="1169" pageHeight="827" math="0" shadow="0">
      <root>
        <mxCell id="0"/>
        <mxCell id="1" parent="0"/>
        <mxCell id="z2BmbQ6l0MY7L84lB-eh-4" value="q_question" style="swimlane;fontStyle=0;childLayout=stackLayout;horizontal=1;startSize=26;fillColor=#fff2cc;horizontalStack=0;resizeParent=1;resizeParentMax=0;resizeLast=0;collapsible=1;marginBottom=0;strokeColor=#d6b656;" parent="1" vertex="1">
          <mxGeometry x="322" y="215" width="143" height="130" as="geometry"/>
        </mxCell>
        <mxCell id="z2BmbQ6l0MY7L84lB-eh-5" value="+ question_id" style="text;strokeColor=none;fillColor=none;align=left;verticalAlign=top;spacingLeft=4;spacingRight=4;overflow=hidden;rotatable=0;points=[[0,0.5],[1,0.5]];portConstraint=eastwest;" parent="z2BmbQ6l0MY7L84lB-eh-4" vertex="1">
          <mxGeometry y="26" width="143" height="26" as="geometry"/>
        </mxCell>
        <mxCell id="z2BmbQ6l0MY7L84lB-eh-6" value="number_in_questionnaire" style="text;strokeColor=none;fillColor=none;align=left;verticalAlign=top;spacingLeft=4;spacingRight=4;overflow=hidden;rotatable=0;points=[[0,0.5],[1,0.5]];portConstraint=eastwest;" parent="z2BmbQ6l0MY7L84lB-eh-4" vertex="1">
          <mxGeometry y="52" width="143" height="26" as="geometry"/>
        </mxCell>
        <mxCell id="z2BmbQ6l0MY7L84lB-eh-7" value="questionnaire_id" style="text;strokeColor=none;fillColor=none;align=left;verticalAlign=top;spacingLeft=4;spacingRight=4;overflow=hidden;rotatable=0;points=[[0,0.5],[1,0.5]];portConstraint=eastwest;" parent="z2BmbQ6l0MY7L84lB-eh-4" vertex="1">
          <mxGeometry y="78" width="143" height="26" as="geometry"/>
        </mxCell>
        <mxCell id="z2BmbQ6l0MY7L84lB-eh-54" value="question_text_id" style="text;strokeColor=none;fillColor=none;align=left;verticalAlign=top;spacingLeft=4;spacingRight=4;overflow=hidden;rotatable=0;points=[[0,0.5],[1,0.5]];portConstraint=eastwest;" parent="z2BmbQ6l0MY7L84lB-eh-4" vertex="1">
          <mxGeometry y="104" width="143" height="26" as="geometry"/>
        </mxCell>
        <mxCell id="z2BmbQ6l0MY7L84lB-eh-8" value="q_questionnaire" style="swimlane;fontStyle=0;childLayout=stackLayout;horizontal=1;startSize=26;fillColor=#fff2cc;horizontalStack=0;resizeParent=1;resizeParentMax=0;resizeLast=0;collapsible=1;marginBottom=0;strokeColor=#d6b656;" parent="1" vertex="1">
          <mxGeometry x="70" y="163" width="140" height="104" as="geometry"/>
        </mxCell>
        <mxCell id="z2BmbQ6l0MY7L84lB-eh-9" value="+ questionnaire_id" style="text;strokeColor=none;fillColor=none;align=left;verticalAlign=top;spacingLeft=4;spacingRight=4;overflow=hidden;rotatable=0;points=[[0,0.5],[1,0.5]];portConstraint=eastwest;" parent="z2BmbQ6l0MY7L84lB-eh-8" vertex="1">
          <mxGeometry y="26" width="140" height="26" as="geometry"/>
        </mxCell>
        <mxCell id="z2BmbQ6l0MY7L84lB-eh-10" value="questionnaire_nickname" style="text;strokeColor=none;fillColor=none;align=left;verticalAlign=top;spacingLeft=4;spacingRight=4;overflow=hidden;rotatable=0;points=[[0,0.5],[1,0.5]];portConstraint=eastwest;" parent="z2BmbQ6l0MY7L84lB-eh-8" vertex="1">
          <mxGeometry y="52" width="140" height="26" as="geometry"/>
        </mxCell>
        <mxCell id="z2BmbQ6l0MY7L84lB-eh-11" value="questionnaire_name" style="text;strokeColor=none;fillColor=none;align=left;verticalAlign=top;spacingLeft=4;spacingRight=4;overflow=hidden;rotatable=0;points=[[0,0.5],[1,0.5]];portConstraint=eastwest;" parent="z2BmbQ6l0MY7L84lB-eh-8" vertex="1">
          <mxGeometry y="78" width="140" height="26" as="geometry"/>
        </mxCell>
        <mxCell id="z2BmbQ6l0MY7L84lB-eh-12" value="person" style="swimlane;fontStyle=0;childLayout=stackLayout;horizontal=1;startSize=29;fillColor=#dae8fc;horizontalStack=0;resizeParent=1;resizeParentMax=0;resizeLast=0;collapsible=1;marginBottom=0;strokeColor=#6c8ebf;" parent="1" vertex="1">
          <mxGeometry x="760" y="18.5" width="140" height="211" as="geometry"/>
        </mxCell>
        <mxCell id="z2BmbQ6l0MY7L84lB-eh-13" value="+ person_id" style="text;strokeColor=none;fillColor=none;align=left;verticalAlign=top;spacingLeft=4;spacingRight=4;overflow=hidden;rotatable=0;points=[[0,0.5],[1,0.5]];portConstraint=eastwest;" parent="z2BmbQ6l0MY7L84lB-eh-12" vertex="1">
          <mxGeometry y="29" width="140" height="26" as="geometry"/>
        </mxCell>
        <mxCell id="z2BmbQ6l0MY7L84lB-eh-14" value="person_name" style="text;strokeColor=none;fillColor=none;align=left;verticalAlign=top;spacingLeft=4;spacingRight=4;overflow=hidden;rotatable=0;points=[[0,0.5],[1,0.5]];portConstraint=eastwest;" parent="z2BmbQ6l0MY7L84lB-eh-12" vertex="1">
          <mxGeometry y="55" width="140" height="26" as="geometry"/>
        </mxCell>
        <mxCell id="z2BmbQ6l0MY7L84lB-eh-15" value="person_surname" style="text;strokeColor=none;fillColor=none;align=left;verticalAlign=top;spacingLeft=4;spacingRight=4;overflow=hidden;rotatable=0;points=[[0,0.5],[1,0.5]];portConstraint=eastwest;" parent="z2BmbQ6l0MY7L84lB-eh-12" vertex="1">
          <mxGeometry y="81" width="140" height="26" as="geometry"/>
        </mxCell>
        <mxCell id="z2BmbQ6l0MY7L84lB-eh-16" value="person_patronymic" style="text;strokeColor=none;fillColor=none;align=left;verticalAlign=top;spacingLeft=4;spacingRight=4;overflow=hidden;rotatable=0;points=[[0,0.5],[1,0.5]];portConstraint=eastwest;" parent="z2BmbQ6l0MY7L84lB-eh-12" vertex="1">
          <mxGeometry y="107" width="140" height="26" as="geometry"/>
        </mxCell>
        <mxCell id="z2BmbQ6l0MY7L84lB-eh-17" value="birthday" style="text;strokeColor=none;fillColor=none;align=left;verticalAlign=top;spacingLeft=4;spacingRight=4;overflow=hidden;rotatable=0;points=[[0,0.5],[1,0.5]];portConstraint=eastwest;" parent="z2BmbQ6l0MY7L84lB-eh-12" vertex="1">
          <mxGeometry y="133" width="140" height="26" as="geometry"/>
        </mxCell>
        <mxCell id="z2BmbQ6l0MY7L84lB-eh-18" value="position_id" style="text;strokeColor=none;fillColor=none;align=left;verticalAlign=top;spacingLeft=4;spacingRight=4;overflow=hidden;rotatable=0;points=[[0,0.5],[1,0.5]];portConstraint=eastwest;" parent="z2BmbQ6l0MY7L84lB-eh-12" vertex="1">
          <mxGeometry y="159" width="140" height="26" as="geometry"/>
        </mxCell>
        <mxCell id="yYKGKoS039EIgSRdd9-Q-1" value="sex" style="text;strokeColor=none;fillColor=none;align=left;verticalAlign=top;spacingLeft=4;spacingRight=4;overflow=hidden;rotatable=0;points=[[0,0.5],[1,0.5]];portConstraint=eastwest;" parent="z2BmbQ6l0MY7L84lB-eh-12" vertex="1">
          <mxGeometry y="185" width="140" height="26" as="geometry"/>
        </mxCell>
        <mxCell id="z2BmbQ6l0MY7L84lB-eh-19" value="q_result" style="swimlane;fontStyle=0;childLayout=stackLayout;horizontal=1;startSize=26;fillColor=#dae8fc;horizontalStack=0;resizeParent=1;resizeParentMax=0;resizeLast=0;collapsible=1;marginBottom=0;strokeColor=#6c8ebf;" parent="1" vertex="1">
          <mxGeometry x="990" y="53.5" width="140" height="156" as="geometry"/>
        </mxCell>
        <mxCell id="z2BmbQ6l0MY7L84lB-eh-20" value="+ result_id" style="text;strokeColor=none;fillColor=none;align=left;verticalAlign=top;spacingLeft=4;spacingRight=4;overflow=hidden;rotatable=0;points=[[0,0.5],[1,0.5]];portConstraint=eastwest;" parent="z2BmbQ6l0MY7L84lB-eh-19" vertex="1">
          <mxGeometry y="26" width="140" height="26" as="geometry"/>
        </mxCell>
        <mxCell id="z2BmbQ6l0MY7L84lB-eh-21" value="person_id" style="text;strokeColor=none;fillColor=none;align=left;verticalAlign=top;spacingLeft=4;spacingRight=4;overflow=hidden;rotatable=0;points=[[0,0.5],[1,0.5]];portConstraint=eastwest;" parent="z2BmbQ6l0MY7L84lB-eh-19" vertex="1">
          <mxGeometry y="52" width="140" height="26" as="geometry"/>
        </mxCell>
        <mxCell id="z2BmbQ6l0MY7L84lB-eh-22" value="scale_id" style="text;strokeColor=none;fillColor=none;align=left;verticalAlign=top;spacingLeft=4;spacingRight=4;overflow=hidden;rotatable=0;points=[[0,0.5],[1,0.5]];portConstraint=eastwest;" parent="z2BmbQ6l0MY7L84lB-eh-19" vertex="1">
          <mxGeometry y="78" width="140" height="26" as="geometry"/>
        </mxCell>
        <mxCell id="z2BmbQ6l0MY7L84lB-eh-23" value="raw_score" style="text;strokeColor=none;fillColor=none;align=left;verticalAlign=top;spacingLeft=4;spacingRight=4;overflow=hidden;rotatable=0;points=[[0,0.5],[1,0.5]];portConstraint=eastwest;" parent="z2BmbQ6l0MY7L84lB-eh-19" vertex="1">
          <mxGeometry y="104" width="140" height="26" as="geometry"/>
        </mxCell>
        <mxCell id="z2BmbQ6l0MY7L84lB-eh-24" value="result_score" style="text;strokeColor=none;fillColor=none;align=left;verticalAlign=top;spacingLeft=4;spacingRight=4;overflow=hidden;rotatable=0;points=[[0,0.5],[1,0.5]];portConstraint=eastwest;" parent="z2BmbQ6l0MY7L84lB-eh-19" vertex="1">
          <mxGeometry y="130" width="140" height="26" as="geometry"/>
        </mxCell>
        <mxCell id="z2BmbQ6l0MY7L84lB-eh-26" value="q_person_answer" style="swimlane;fontStyle=0;childLayout=stackLayout;horizontal=1;startSize=26;fillColor=#dae8fc;horizontalStack=0;resizeParent=1;resizeParentMax=0;resizeLast=0;collapsible=1;marginBottom=0;strokeColor=#6c8ebf;swimlaneFillColor=#F7F4F0;" parent="1" vertex="1">
          <mxGeometry x="561.5" y="85" width="140" height="104" as="geometry"/>
        </mxCell>
        <mxCell id="z2BmbQ6l0MY7L84lB-eh-27" value="+ person_answer_id" style="text;strokeColor=none;fillColor=none;align=left;verticalAlign=top;spacingLeft=4;spacingRight=4;overflow=hidden;rotatable=0;points=[[0,0.5],[1,0.5]];portConstraint=eastwest;" parent="z2BmbQ6l0MY7L84lB-eh-26" vertex="1">
          <mxGeometry y="26" width="140" height="26" as="geometry"/>
        </mxCell>
        <mxCell id="z2BmbQ6l0MY7L84lB-eh-28" value="person_id" style="text;strokeColor=none;fillColor=none;align=left;verticalAlign=top;spacingLeft=4;spacingRight=4;overflow=hidden;rotatable=0;points=[[0,0.5],[1,0.5]];portConstraint=eastwest;" parent="z2BmbQ6l0MY7L84lB-eh-26" vertex="1">
          <mxGeometry y="52" width="140" height="26" as="geometry"/>
        </mxCell>
        <mxCell id="z2BmbQ6l0MY7L84lB-eh-29" value="answer_id" style="text;strokeColor=none;fillColor=none;align=left;verticalAlign=top;spacingLeft=4;spacingRight=4;overflow=hidden;rotatable=0;points=[[0,0.5],[1,0.5]];portConstraint=eastwest;" parent="z2BmbQ6l0MY7L84lB-eh-26" vertex="1">
          <mxGeometry y="78" width="140" height="26" as="geometry"/>
        </mxCell>
        <mxCell id="z2BmbQ6l0MY7L84lB-eh-32" value="q_answer" style="swimlane;fontStyle=0;childLayout=stackLayout;horizontal=1;startSize=26;fillColor=#fff2cc;horizontalStack=0;resizeParent=1;resizeParentMax=0;resizeLast=0;collapsible=1;marginBottom=0;strokeColor=#d6b656;" parent="1" vertex="1">
          <mxGeometry x="325" y="18.5" width="140" height="156" as="geometry"/>
        </mxCell>
        <mxCell id="z2BmbQ6l0MY7L84lB-eh-33" value="+ answer_id" style="text;strokeColor=none;fillColor=none;align=left;verticalAlign=top;spacingLeft=4;spacingRight=4;overflow=hidden;rotatable=0;points=[[0,0.5],[1,0.5]];portConstraint=eastwest;" parent="z2BmbQ6l0MY7L84lB-eh-32" vertex="1">
          <mxGeometry y="26" width="140" height="26" as="geometry"/>
        </mxCell>
        <mxCell id="z2BmbQ6l0MY7L84lB-eh-37" value="answer_text_id" style="text;strokeColor=none;fillColor=none;align=left;verticalAlign=top;spacingLeft=4;spacingRight=4;overflow=hidden;rotatable=0;points=[[0,0.5],[1,0.5]];portConstraint=eastwest;" parent="z2BmbQ6l0MY7L84lB-eh-32" vertex="1">
          <mxGeometry y="52" width="140" height="26" as="geometry"/>
        </mxCell>
        <mxCell id="z2BmbQ6l0MY7L84lB-eh-36" value="question_id" style="text;strokeColor=none;fillColor=none;align=left;verticalAlign=top;spacingLeft=4;spacingRight=4;overflow=hidden;rotatable=0;points=[[0,0.5],[1,0.5]];portConstraint=eastwest;" parent="z2BmbQ6l0MY7L84lB-eh-32" vertex="1">
          <mxGeometry y="78" width="140" height="26" as="geometry"/>
        </mxCell>
        <mxCell id="z2BmbQ6l0MY7L84lB-eh-35" value="number_in_question" style="text;strokeColor=none;fillColor=none;align=left;verticalAlign=top;spacingLeft=4;spacingRight=4;overflow=hidden;rotatable=0;points=[[0,0.5],[1,0.5]];portConstraint=eastwest;" parent="z2BmbQ6l0MY7L84lB-eh-32" vertex="1">
          <mxGeometry y="104" width="140" height="26" as="geometry"/>
        </mxCell>
        <mxCell id="z2BmbQ6l0MY7L84lB-eh-38" value="score" style="text;strokeColor=none;fillColor=none;align=left;verticalAlign=top;spacingLeft=4;spacingRight=4;overflow=hidden;rotatable=0;points=[[0,0.5],[1,0.5]];portConstraint=eastwest;" parent="z2BmbQ6l0MY7L84lB-eh-32" vertex="1">
          <mxGeometry y="130" width="140" height="26" as="geometry"/>
        </mxCell>
        <mxCell id="z2BmbQ6l0MY7L84lB-eh-39" value="q_answer_text" style="swimlane;fontStyle=0;childLayout=stackLayout;horizontal=1;startSize=26;fillColor=#fff2cc;horizontalStack=0;resizeParent=1;resizeParentMax=0;resizeLast=0;collapsible=1;marginBottom=0;strokeColor=#d6b656;" parent="1" vertex="1">
          <mxGeometry x="70" y="30" width="140" height="78" as="geometry"/>
        </mxCell>
        <mxCell id="z2BmbQ6l0MY7L84lB-eh-40" value="+ answer_text_id" style="text;strokeColor=none;fillColor=none;align=left;verticalAlign=top;spacingLeft=4;spacingRight=4;overflow=hidden;rotatable=0;points=[[0,0.5],[1,0.5]];portConstraint=eastwest;" parent="z2BmbQ6l0MY7L84lB-eh-39" vertex="1">
          <mxGeometry y="26" width="140" height="26" as="geometry"/>
        </mxCell>
        <mxCell id="z2BmbQ6l0MY7L84lB-eh-41" value="answer_text" style="text;strokeColor=none;fillColor=none;align=left;verticalAlign=top;spacingLeft=4;spacingRight=4;overflow=hidden;rotatable=0;points=[[0,0.5],[1,0.5]];portConstraint=eastwest;" parent="z2BmbQ6l0MY7L84lB-eh-39" vertex="1">
          <mxGeometry y="52" width="140" height="26" as="geometry"/>
        </mxCell>
        <mxCell id="yYKGKoS039EIgSRdd9-Q-2" value="q_question_text" style="swimlane;fontStyle=0;childLayout=stackLayout;horizontal=1;startSize=26;fillColor=#fff2cc;horizontalStack=0;resizeParent=1;resizeParentMax=0;resizeLast=0;collapsible=1;marginBottom=0;strokeColor=#d6b656;" parent="1" vertex="1">
          <mxGeometry x="70" y="322" width="140" height="78" as="geometry"/>
        </mxCell>
        <mxCell id="yYKGKoS039EIgSRdd9-Q-3" value="+ question_text_id" style="text;strokeColor=none;fillColor=none;align=left;verticalAlign=top;spacingLeft=4;spacingRight=4;overflow=hidden;rotatable=0;points=[[0,0.5],[1,0.5]];portConstraint=eastwest;" parent="yYKGKoS039EIgSRdd9-Q-2" vertex="1">
          <mxGeometry y="26" width="140" height="26" as="geometry"/>
        </mxCell>
        <mxCell id="yYKGKoS039EIgSRdd9-Q-4" value="question_text" style="text;strokeColor=none;fillColor=none;align=left;verticalAlign=top;spacingLeft=4;spacingRight=4;overflow=hidden;rotatable=0;points=[[0,0.5],[1,0.5]];portConstraint=eastwest;" parent="yYKGKoS039EIgSRdd9-Q-2" vertex="1">
          <mxGeometry y="52" width="140" height="26" as="geometry"/>
        </mxCell>
        <mxCell id="yYKGKoS039EIgSRdd9-Q-15" value="q_question_scale" style="swimlane;fontStyle=0;childLayout=stackLayout;horizontal=1;startSize=26;fillColor=#d5e8d4;horizontalStack=0;resizeParent=1;resizeParentMax=0;resizeLast=0;collapsible=1;marginBottom=0;strokeColor=#82b366;swimlaneFillColor=#F7F4F0;" parent="1" vertex="1">
          <mxGeometry x="561.5" y="226" width="140" height="104" as="geometry"/>
        </mxCell>
        <mxCell id="yYKGKoS039EIgSRdd9-Q-16" value="+ question_scale_id" style="text;strokeColor=none;fillColor=none;align=left;verticalAlign=top;spacingLeft=4;spacingRight=4;overflow=hidden;rotatable=0;points=[[0,0.5],[1,0.5]];portConstraint=eastwest;" parent="yYKGKoS039EIgSRdd9-Q-15" vertex="1">
          <mxGeometry y="26" width="140" height="26" as="geometry"/>
        </mxCell>
        <mxCell id="yYKGKoS039EIgSRdd9-Q-18" value="scale_id" style="text;strokeColor=none;fillColor=none;align=left;verticalAlign=top;spacingLeft=4;spacingRight=4;overflow=hidden;rotatable=0;points=[[0,0.5],[1,0.5]];portConstraint=eastwest;" parent="yYKGKoS039EIgSRdd9-Q-15" vertex="1">
          <mxGeometry y="52" width="140" height="26" as="geometry"/>
        </mxCell>
        <mxCell id="yYKGKoS039EIgSRdd9-Q-17" value="question_id" style="text;strokeColor=none;fillColor=none;align=left;verticalAlign=top;spacingLeft=4;spacingRight=4;overflow=hidden;rotatable=0;points=[[0,0.5],[1,0.5]];portConstraint=eastwest;" parent="yYKGKoS039EIgSRdd9-Q-15" vertex="1">
          <mxGeometry y="78" width="140" height="26" as="geometry"/>
        </mxCell>
        <mxCell id="yYKGKoS039EIgSRdd9-Q-19" value="q_scale" style="swimlane;fontStyle=0;childLayout=stackLayout;horizontal=1;startSize=26;fillColor=#d5e8d4;horizontalStack=0;resizeParent=1;resizeParentMax=0;resizeLast=0;collapsible=1;marginBottom=0;strokeColor=#82b366;" parent="1" vertex="1">
          <mxGeometry x="750" y="320" width="140" height="104" as="geometry"/>
        </mxCell>
        <mxCell id="yYKGKoS039EIgSRdd9-Q-20" value="+ scale_id" style="text;strokeColor=none;fillColor=none;align=left;verticalAlign=top;spacingLeft=4;spacingRight=4;overflow=hidden;rotatable=0;points=[[0,0.5],[1,0.5]];portConstraint=eastwest;" parent="yYKGKoS039EIgSRdd9-Q-19" vertex="1">
          <mxGeometry y="26" width="140" height="26" as="geometry"/>
        </mxCell>
        <mxCell id="yYKGKoS039EIgSRdd9-Q-21" value="scale_name" style="text;strokeColor=none;fillColor=none;align=left;verticalAlign=top;spacingLeft=4;spacingRight=4;overflow=hidden;rotatable=0;points=[[0,0.5],[1,0.5]];portConstraint=eastwest;" parent="yYKGKoS039EIgSRdd9-Q-19" vertex="1">
          <mxGeometry y="52" width="140" height="26" as="geometry"/>
        </mxCell>
        <mxCell id="yYKGKoS039EIgSRdd9-Q-22" value="scale_nickname" style="text;strokeColor=none;fillColor=none;align=left;verticalAlign=top;spacingLeft=4;spacingRight=4;overflow=hidden;rotatable=0;points=[[0,0.5],[1,0.5]];portConstraint=eastwest;" parent="yYKGKoS039EIgSRdd9-Q-19" vertex="1">
          <mxGeometry y="78" width="140" height="26" as="geometry"/>
        </mxCell>
        <mxCell id="yYKGKoS039EIgSRdd9-Q-23" value="q_partitioning_scale" style="swimlane;fontStyle=0;childLayout=stackLayout;horizontal=1;startSize=26;fillColor=#f8cecc;horizontalStack=0;resizeParent=1;resizeParentMax=0;resizeLast=0;collapsible=1;marginBottom=0;strokeColor=#b85450;" parent="1" vertex="1">
          <mxGeometry x="491.5" y="430" width="140" height="130" as="geometry"/>
        </mxCell>
        <mxCell id="yYKGKoS039EIgSRdd9-Q-24" value="+ partitioning_scale_id" style="text;strokeColor=none;fillColor=none;align=left;verticalAlign=top;spacingLeft=4;spacingRight=4;overflow=hidden;rotatable=0;points=[[0,0.5],[1,0.5]];portConstraint=eastwest;" parent="yYKGKoS039EIgSRdd9-Q-23" vertex="1">
          <mxGeometry y="26" width="140" height="26" as="geometry"/>
        </mxCell>
        <mxCell id="yYKGKoS039EIgSRdd9-Q-25" value="scale_id" style="text;strokeColor=none;fillColor=none;align=left;verticalAlign=top;spacingLeft=4;spacingRight=4;overflow=hidden;rotatable=0;points=[[0,0.5],[1,0.5]];portConstraint=eastwest;" parent="yYKGKoS039EIgSRdd9-Q-23" vertex="1">
          <mxGeometry y="52" width="140" height="26" as="geometry"/>
        </mxCell>
        <mxCell id="yYKGKoS039EIgSRdd9-Q-27" value="interval_set_id" style="text;strokeColor=none;fillColor=none;align=left;verticalAlign=top;spacingLeft=4;spacingRight=4;overflow=hidden;rotatable=0;points=[[0,0.5],[1,0.5]];portConstraint=eastwest;" parent="yYKGKoS039EIgSRdd9-Q-23" vertex="1">
          <mxGeometry y="78" width="140" height="26" as="geometry"/>
        </mxCell>
        <mxCell id="yYKGKoS039EIgSRdd9-Q-26" value="partitioning_scale_name" style="text;strokeColor=none;fillColor=none;align=left;verticalAlign=top;spacingLeft=4;spacingRight=4;overflow=hidden;rotatable=0;points=[[0,0.5],[1,0.5]];portConstraint=eastwest;" parent="yYKGKoS039EIgSRdd9-Q-23" vertex="1">
          <mxGeometry y="104" width="140" height="26" as="geometry"/>
        </mxCell>
        <mxCell id="yYKGKoS039EIgSRdd9-Q-31" value="q_interval_set" style="swimlane;fontStyle=0;childLayout=stackLayout;horizontal=1;startSize=26;fillColor=#e1d5e7;horizontalStack=0;resizeParent=1;resizeParentMax=0;resizeLast=0;collapsible=1;marginBottom=0;strokeColor=#9673a6;" parent="1" vertex="1">
          <mxGeometry x="780" y="515" width="140" height="130" as="geometry"/>
        </mxCell>
        <mxCell id="yYKGKoS039EIgSRdd9-Q-32" value="+ interval_set_id" style="text;strokeColor=none;fillColor=none;align=left;verticalAlign=top;spacingLeft=4;spacingRight=4;overflow=hidden;rotatable=0;points=[[0,0.5],[1,0.5]];portConstraint=eastwest;" parent="yYKGKoS039EIgSRdd9-Q-31" vertex="1">
          <mxGeometry y="26" width="140" height="26" as="geometry"/>
        </mxCell>
        <mxCell id="yYKGKoS039EIgSRdd9-Q-33" value="interval_set_name_id" style="text;strokeColor=none;fillColor=none;align=left;verticalAlign=top;spacingLeft=4;spacingRight=4;overflow=hidden;rotatable=0;points=[[0,0.5],[1,0.5]];portConstraint=eastwest;" parent="yYKGKoS039EIgSRdd9-Q-31" vertex="1">
          <mxGeometry y="52" width="140" height="26" as="geometry"/>
        </mxCell>
        <mxCell id="yYKGKoS039EIgSRdd9-Q-34" value="interval_name_id" style="text;strokeColor=none;fillColor=none;align=left;verticalAlign=top;spacingLeft=4;spacingRight=4;overflow=hidden;rotatable=0;points=[[0,0.5],[1,0.5]];portConstraint=eastwest;" parent="yYKGKoS039EIgSRdd9-Q-31" vertex="1">
          <mxGeometry y="78" width="140" height="26" as="geometry"/>
        </mxCell>
        <mxCell id="yYKGKoS039EIgSRdd9-Q-35" value="number_in_interval_set" style="text;strokeColor=none;fillColor=none;align=left;verticalAlign=top;spacingLeft=4;spacingRight=4;overflow=hidden;rotatable=0;points=[[0,0.5],[1,0.5]];portConstraint=eastwest;" parent="yYKGKoS039EIgSRdd9-Q-31" vertex="1">
          <mxGeometry y="104" width="140" height="26" as="geometry"/>
        </mxCell>
        <mxCell id="yYKGKoS039EIgSRdd9-Q-37" value="q_interval_set_name" style="swimlane;fontStyle=0;childLayout=stackLayout;horizontal=1;startSize=26;fillColor=#e1d5e7;horizontalStack=0;resizeParent=1;resizeParentMax=0;resizeLast=0;collapsible=1;marginBottom=0;strokeColor=#9673a6;" parent="1" vertex="1">
          <mxGeometry x="990" y="468" width="140" height="78" as="geometry"/>
        </mxCell>
        <mxCell id="yYKGKoS039EIgSRdd9-Q-38" value="+ interval_set_name_id" style="text;strokeColor=none;fillColor=none;align=left;verticalAlign=top;spacingLeft=4;spacingRight=4;overflow=hidden;rotatable=0;points=[[0,0.5],[1,0.5]];portConstraint=eastwest;" parent="yYKGKoS039EIgSRdd9-Q-37" vertex="1">
          <mxGeometry y="26" width="140" height="26" as="geometry"/>
        </mxCell>
        <mxCell id="yYKGKoS039EIgSRdd9-Q-39" value="interval_set_name" style="text;strokeColor=none;fillColor=none;align=left;verticalAlign=top;spacingLeft=4;spacingRight=4;overflow=hidden;rotatable=0;points=[[0,0.5],[1,0.5]];portConstraint=eastwest;" parent="yYKGKoS039EIgSRdd9-Q-37" vertex="1">
          <mxGeometry y="52" width="140" height="26" as="geometry"/>
        </mxCell>
        <mxCell id="yYKGKoS039EIgSRdd9-Q-42" value="q_interval_name" style="swimlane;fontStyle=0;childLayout=stackLayout;horizontal=1;startSize=26;fillColor=#e1d5e7;horizontalStack=0;resizeParent=1;resizeParentMax=0;resizeLast=0;collapsible=1;marginBottom=0;strokeColor=#9673a6;" parent="1" vertex="1">
          <mxGeometry x="990" y="602" width="140" height="104" as="geometry"/>
        </mxCell>
        <mxCell id="yYKGKoS039EIgSRdd9-Q-43" value="+ interval_name_id" style="text;strokeColor=none;fillColor=none;align=left;verticalAlign=top;spacingLeft=4;spacingRight=4;overflow=hidden;rotatable=0;points=[[0,0.5],[1,0.5]];portConstraint=eastwest;" parent="yYKGKoS039EIgSRdd9-Q-42" vertex="1">
          <mxGeometry y="26" width="140" height="26" as="geometry"/>
        </mxCell>
        <mxCell id="yYKGKoS039EIgSRdd9-Q-44" value="interval_nickname" style="text;strokeColor=none;fillColor=none;align=left;verticalAlign=top;spacingLeft=4;spacingRight=4;overflow=hidden;rotatable=0;points=[[0,0.5],[1,0.5]];portConstraint=eastwest;" parent="yYKGKoS039EIgSRdd9-Q-42" vertex="1">
          <mxGeometry y="52" width="140" height="26" as="geometry"/>
        </mxCell>
        <mxCell id="yYKGKoS039EIgSRdd9-Q-45" value="interval_name" style="text;strokeColor=none;fillColor=none;align=left;verticalAlign=top;spacingLeft=4;spacingRight=4;overflow=hidden;rotatable=0;points=[[0,0.5],[1,0.5]];portConstraint=eastwest;" parent="yYKGKoS039EIgSRdd9-Q-42" vertex="1">
          <mxGeometry y="78" width="140" height="26" as="geometry"/>
        </mxCell>
        <mxCell id="yYKGKoS039EIgSRdd9-Q-47" value="q_partitioning" style="swimlane;fontStyle=0;childLayout=stackLayout;horizontal=1;startSize=26;fillColor=#f8cecc;horizontalStack=0;resizeParent=1;resizeParentMax=0;resizeLast=0;collapsible=1;marginBottom=0;strokeColor=#b85450;" parent="1" vertex="1">
          <mxGeometry x="255" y="594.5" width="140" height="130" as="geometry"/>
        </mxCell>
        <mxCell id="yYKGKoS039EIgSRdd9-Q-48" value="+ partitioning_id" style="text;strokeColor=none;fillColor=none;align=left;verticalAlign=top;spacingLeft=4;spacingRight=4;overflow=hidden;rotatable=0;points=[[0,0.5],[1,0.5]];portConstraint=eastwest;" parent="yYKGKoS039EIgSRdd9-Q-47" vertex="1">
          <mxGeometry y="26" width="140" height="26" as="geometry"/>
        </mxCell>
        <mxCell id="yYKGKoS039EIgSRdd9-Q-49" value="interval_score_id" style="text;strokeColor=none;fillColor=none;align=left;verticalAlign=top;spacingLeft=4;spacingRight=4;overflow=hidden;rotatable=0;points=[[0,0.5],[1,0.5]];portConstraint=eastwest;" parent="yYKGKoS039EIgSRdd9-Q-47" vertex="1">
          <mxGeometry y="52" width="140" height="26" as="geometry"/>
        </mxCell>
        <mxCell id="yYKGKoS039EIgSRdd9-Q-51" value="partitioning_scale_id" style="text;strokeColor=none;fillColor=none;align=left;verticalAlign=top;spacingLeft=4;spacingRight=4;overflow=hidden;rotatable=0;points=[[0,0.5],[1,0.5]];portConstraint=eastwest;" parent="yYKGKoS039EIgSRdd9-Q-47" vertex="1">
          <mxGeometry y="78" width="140" height="26" as="geometry"/>
        </mxCell>
        <mxCell id="yYKGKoS039EIgSRdd9-Q-50" value="number_in_partitioning" style="text;strokeColor=none;fillColor=none;align=left;verticalAlign=top;spacingLeft=4;spacingRight=4;overflow=hidden;rotatable=0;points=[[0,0.5],[1,0.5]];portConstraint=eastwest;" parent="yYKGKoS039EIgSRdd9-Q-47" vertex="1">
          <mxGeometry y="104" width="140" height="26" as="geometry"/>
        </mxCell>
        <mxCell id="yYKGKoS039EIgSRdd9-Q-52" value="q_interval_score" style="swimlane;fontStyle=0;childLayout=stackLayout;horizontal=1;startSize=26;fillColor=#f8cecc;horizontalStack=0;resizeParent=1;resizeParentMax=0;resizeLast=0;collapsible=1;marginBottom=0;strokeColor=#b85450;" parent="1" vertex="1">
          <mxGeometry x="60" y="620.5" width="140" height="104" as="geometry"/>
        </mxCell>
        <mxCell id="yYKGKoS039EIgSRdd9-Q-53" value="+ interval_score_id" style="text;strokeColor=none;fillColor=none;align=left;verticalAlign=top;spacingLeft=4;spacingRight=4;overflow=hidden;rotatable=0;points=[[0,0.5],[1,0.5]];portConstraint=eastwest;" parent="yYKGKoS039EIgSRdd9-Q-52" vertex="1">
          <mxGeometry y="26" width="140" height="26" as="geometry"/>
        </mxCell>
        <mxCell id="yYKGKoS039EIgSRdd9-Q-54" value="min_score" style="text;strokeColor=none;fillColor=none;align=left;verticalAlign=top;spacingLeft=4;spacingRight=4;overflow=hidden;rotatable=0;points=[[0,0.5],[1,0.5]];portConstraint=eastwest;" parent="yYKGKoS039EIgSRdd9-Q-52" vertex="1">
          <mxGeometry y="52" width="140" height="26" as="geometry"/>
        </mxCell>
        <mxCell id="yYKGKoS039EIgSRdd9-Q-55" value="max_score" style="text;strokeColor=none;fillColor=none;align=left;verticalAlign=top;spacingLeft=4;spacingRight=4;overflow=hidden;rotatable=0;points=[[0,0.5],[1,0.5]];portConstraint=eastwest;" parent="yYKGKoS039EIgSRdd9-Q-52" vertex="1">
          <mxGeometry y="78" width="140" height="26" as="geometry"/>
        </mxCell>
        <mxCell id="yYKGKoS039EIgSRdd9-Q-59" value="comment" style="swimlane;fontStyle=0;childLayout=stackLayout;horizontal=1;startSize=26;fillColor=#f8cecc;horizontalStack=0;resizeParent=1;resizeParentMax=0;resizeLast=0;collapsible=1;marginBottom=0;strokeColor=#b85450;" parent="1" vertex="1">
          <mxGeometry x="252" y="476" width="140" height="78" as="geometry"/>
        </mxCell>
        <mxCell id="yYKGKoS039EIgSRdd9-Q-60" value="+ comment_id" style="text;strokeColor=none;fillColor=none;align=left;verticalAlign=top;spacingLeft=4;spacingRight=4;overflow=hidden;rotatable=0;points=[[0,0.5],[1,0.5]];portConstraint=eastwest;" parent="yYKGKoS039EIgSRdd9-Q-59" vertex="1">
          <mxGeometry y="26" width="140" height="26" as="geometry"/>
        </mxCell>
        <mxCell id="yYKGKoS039EIgSRdd9-Q-61" value="comment_text" style="text;strokeColor=none;fillColor=none;align=left;verticalAlign=top;spacingLeft=4;spacingRight=4;overflow=hidden;rotatable=0;points=[[0,0.5],[1,0.5]];portConstraint=eastwest;" parent="yYKGKoS039EIgSRdd9-Q-59" vertex="1">
          <mxGeometry y="52" width="140" height="26" as="geometry"/>
        </mxCell>
        <mxCell id="yYKGKoS039EIgSRdd9-Q-67" value="position" style="swimlane;fontStyle=0;childLayout=stackLayout;horizontal=1;startSize=26;fillColor=#dae8fc;horizontalStack=0;resizeParent=1;resizeParentMax=0;resizeLast=0;collapsible=1;marginBottom=0;strokeColor=#6c8ebf;" parent="1" vertex="1">
          <mxGeometry x="990" y="232.5" width="140" height="78" as="geometry"/>
        </mxCell>
        <mxCell id="yYKGKoS039EIgSRdd9-Q-68" value="+ position_id" style="text;strokeColor=none;fillColor=none;align=left;verticalAlign=top;spacingLeft=4;spacingRight=4;overflow=hidden;rotatable=0;points=[[0,0.5],[1,0.5]];portConstraint=eastwest;" parent="yYKGKoS039EIgSRdd9-Q-67" vertex="1">
          <mxGeometry y="26" width="140" height="26" as="geometry"/>
        </mxCell>
        <mxCell id="yYKGKoS039EIgSRdd9-Q-69" value="position" style="text;strokeColor=none;fillColor=none;align=left;verticalAlign=top;spacingLeft=4;spacingRight=4;overflow=hidden;rotatable=0;points=[[0,0.5],[1,0.5]];portConstraint=eastwest;" parent="yYKGKoS039EIgSRdd9-Q-67" vertex="1">
          <mxGeometry y="52" width="140" height="26" as="geometry"/>
        </mxCell>
        <mxCell id="yYKGKoS039EIgSRdd9-Q-73" value="&lt;div&gt;&lt;span&gt;Наборы диапазонов&lt;/span&gt;&lt;span&gt;. каждому диапазону (&lt;/span&gt;&lt;span lang=&quot;EN-US&quot;&gt;&lt;i&gt;interval_score_id&lt;/i&gt;&lt;/span&gt;&lt;span&gt;) назначается его порядковый номер в разбиении&lt;/span&gt;&lt;span&gt;. Через поле &lt;/span&gt;&lt;span lang=&quot;EN-US&quot;&gt;&lt;i&gt;partitioning_scale_id&lt;/i&gt;&amp;nbsp;&lt;/span&gt;&lt;/div&gt;&lt;div&gt;разбиение связывается с таблицей &lt;i&gt;p&lt;/i&gt;&lt;span lang=&quot;EN-US&quot;&gt;&lt;i&gt;artitioning_scale&lt;/i&gt;&lt;/span&gt;&lt;/div&gt;" style="shape=note;whiteSpace=wrap;html=1;size=14;verticalAlign=top;align=left;spacingTop=-6;fillColor=#f5f5f5;strokeColor=#666666;fontColor=#333333;" parent="1" vertex="1">
          <mxGeometry x="-150" y="775.5" width="138" height="175" as="geometry"/>
        </mxCell>
        <mxCell id="yYKGKoS039EIgSRdd9-Q-74" value="Анкеты: &lt;br&gt;имеют полное название и аббревиатуру&lt;br&gt;&lt;span&gt;&lt;b&gt;&quot;опросник структуры темперамента&quot; -&amp;nbsp; &quot;ОСТ&quot;&lt;/b&gt;&lt;/span&gt;" style="shape=note;whiteSpace=wrap;html=1;size=14;verticalAlign=top;align=left;spacingTop=-6;fillColor=#f5f5f5;strokeColor=#666666;fontColor=#333333;" parent="1" vertex="1">
          <mxGeometry x="1190" y="231.5" width="90" height="130" as="geometry"/>
        </mxCell>
        <mxCell id="yYKGKoS039EIgSRdd9-Q-77" value="Какой вопрос &lt;br&gt;к какой шкале относится" style="shape=note;whiteSpace=wrap;html=1;size=13;verticalAlign=top;align=left;spacingTop=-6;fillColor=#f5f5f5;strokeColor=#666666;fontColor=#333333;" parent="1" vertex="1">
          <mxGeometry x="-99.5" y="13.5" width="70" height="70" as="geometry"/>
        </mxCell>
        <mxCell id="yYKGKoS039EIgSRdd9-Q-80" value="&lt;p style=&quot;text-align: justify&quot;&gt;&lt;span&gt;Баллы, полученные из ответов респондента на вопросы опросников, суммируются по шкалам и сравниваются с контрольными значениями. В зависимости от задач исследователя в базе предусмотрена возможность задавать разные варианты интервалов для контрольных значений. &lt;/span&gt;&lt;/p&gt;&lt;p style=&quot;text-align: justify&quot;&gt;Например, для опросника структуры темперамента (ОСТ) можно разделять результаты респондентов по &lt;i&gt;низким, средним и высоким&lt;/i&gt; значениям, а можно разделить их на &lt;i&gt;низкие-низкие, низкие-высокие, средние-низкие, средние-высокие, высокие-низкие и высокие-высокие значения.&amp;nbsp;&lt;/i&gt;&lt;/p&gt;" style="shape=note;whiteSpace=wrap;html=1;size=14;verticalAlign=top;align=left;spacingTop=-6;fillColor=#f5f5f5;strokeColor=#666666;fontColor=#333333;" parent="1" vertex="1">
          <mxGeometry x="-680" y="700.5" width="529" height="150" as="geometry"/>
        </mxCell>
        <mxCell id="yYKGKoS039EIgSRdd9-Q-82" value="Названия всех возможных интервалов для контрольных значений и их сокращения &lt;b&gt;(например, &quot;низкий-низкий&quot;, сокр. &quot;нн&quot;)&lt;/b&gt;" style="shape=note;whiteSpace=wrap;html=1;size=14;verticalAlign=top;align=left;spacingTop=-6;fillColor=#f5f5f5;strokeColor=#666666;fontColor=#333333;" parent="1" vertex="1">
          <mxGeometry x="-237.5" y="534.5" width="173" height="80" as="geometry"/>
        </mxCell>
        <mxCell id="yYKGKoS039EIgSRdd9-Q-84" value="&lt;p&gt;Наборы интервалов. В эту таблицу передается имя группы интервалов (например,&lt;b&gt; “нн-вв-6”)&lt;/b&gt; из&amp;nbsp; таблицы &lt;i&gt;i&lt;span lang=&quot;EN-US&quot;&gt;nterval_set_name&lt;/span&gt;&lt;/i&gt;,&amp;nbsp; и имя самого интервала (например,&lt;b&gt; “низкий-средний”)&lt;/b&gt; из таблицы &lt;i&gt;i&lt;span lang=&quot;EN-US&quot;&gt;nterval_name&lt;/span&gt;&lt;/i&gt;, а также задается его порядковый номер в наборе (&lt;span lang=&quot;EN-US&quot;&gt;&lt;i&gt;number_in_interval_set&lt;/i&gt;&lt;/span&gt;).&lt;/p&gt;" style="shape=note;whiteSpace=wrap;html=1;size=14;verticalAlign=top;align=left;spacingTop=-6;fillColor=#f5f5f5;strokeColor=#666666;fontColor=#333333;" parent="1" vertex="1">
          <mxGeometry x="-390" y="427.5" width="160" height="214" as="geometry"/>
        </mxCell>
        <mxCell id="yYKGKoS039EIgSRdd9-Q-86" value="&lt;div&gt;шкала (&lt;span lang=&quot;EN-US&quot;&gt;&lt;i&gt;scale_id&lt;/i&gt;&lt;/span&gt;) связывается с набором интервалов контрольных значений опросника (&lt;span lang=&quot;EN-US&quot;&gt;&lt;i&gt;interval_set_id&lt;/i&gt;&lt;/span&gt;). Поле &lt;span lang=&quot;EN-US&quot;&gt;&lt;i&gt;partitioning_scale_name&lt;/i&gt;&amp;nbsp;&lt;/span&gt;позволяет задать имя варианта деления для удобства исследователя (например, &lt;b&gt;“стандартный вариант”, “вариант Иванова И.И.”&lt;/b&gt;).&lt;/div&gt;" style="shape=note;whiteSpace=wrap;html=1;size=14;verticalAlign=top;align=left;spacingTop=-6;fillColor=#f5f5f5;strokeColor=#666666;fontColor=#333333;" parent="1" vertex="1">
          <mxGeometry x="-251" y="595.5" width="200" height="180" as="geometry"/>
        </mxCell>
        <mxCell id="yYKGKoS039EIgSRdd9-Q-88" value="&lt;span&gt;комментарии, для чего нужно данное разбиение и кто его составил&lt;/span&gt;" style="shape=note;whiteSpace=wrap;html=1;size=14;verticalAlign=top;align=left;spacingTop=-6;fillColor=#f5f5f5;strokeColor=#666666;fontColor=#333333;" parent="1" vertex="1">
          <mxGeometry x="-200" y="476" width="160" height="52" as="geometry"/>
        </mxCell>
        <mxCell id="yYKGKoS039EIgSRdd9-Q-90" value="&lt;span&gt;Ключ из таблицы p&lt;/span&gt;&lt;span lang=&quot;EN-US&quot;&gt;artitionig_scale&amp;nbsp;&lt;br&gt;&lt;/span&gt;&lt;span&gt;приходит в таблицу p&lt;/span&gt;&lt;span lang=&quot;EN-US&quot;&gt;artitioning&lt;/span&gt;&lt;span&gt;, где и собирается окончательный вариант разбиения для оценки результатов по каждой шкале конкретного опросника&lt;/span&gt;" style="shape=note;whiteSpace=wrap;html=1;size=14;verticalAlign=top;align=left;spacingTop=-6;fillColor=#f5f5f5;strokeColor=#666666;fontColor=#333333;" parent="1" vertex="1">
          <mxGeometry x="-279" y="838.5" width="128" height="203" as="geometry"/>
        </mxCell>
        <mxCell id="yYKGKoS039EIgSRdd9-Q-92" value="" style="endArrow=none;dashed=1;html=1;entryX=0.5;entryY=1;entryDx=0;entryDy=0;entryPerimeter=0;exitX=0.151;exitY=0;exitDx=0;exitDy=0;exitPerimeter=0;" parent="1" source="yYKGKoS039EIgSRdd9-Q-80" target="yYKGKoS039EIgSRdd9-Q-84" edge="1">
          <mxGeometry width="50" height="50" relative="1" as="geometry">
            <mxPoint x="274.5" y="989.2893218813452" as="sourcePoint"/>
            <mxPoint x="274.5" y="939.2893218813452" as="targetPoint"/>
          </mxGeometry>
        </mxCell>
        <mxCell id="Z5buh7EiLKM07HB39s60-3" value="hw_set" style="swimlane;fontStyle=0;childLayout=stackLayout;horizontal=1;startSize=29;fillColor=#b0e3e6;horizontalStack=0;resizeParent=1;resizeParentMax=0;resizeLast=0;collapsible=1;marginBottom=0;strokeColor=#0e8088;" parent="1" vertex="1">
          <mxGeometry x="1520" y="30" width="140" height="185" as="geometry"/>
        </mxCell>
        <mxCell id="Z5buh7EiLKM07HB39s60-4" value="+ set_id" style="text;strokeColor=none;fillColor=none;align=left;verticalAlign=top;spacingLeft=4;spacingRight=4;overflow=hidden;rotatable=0;points=[[0,0.5],[1,0.5]];portConstraint=eastwest;" parent="Z5buh7EiLKM07HB39s60-3" vertex="1">
          <mxGeometry y="29" width="140" height="26" as="geometry"/>
        </mxCell>
        <mxCell id="Z5buh7EiLKM07HB39s60-5" value="person_id" style="text;strokeColor=none;fillColor=none;align=left;verticalAlign=top;spacingLeft=4;spacingRight=4;overflow=hidden;rotatable=0;points=[[0,0.5],[1,0.5]];portConstraint=eastwest;" parent="Z5buh7EiLKM07HB39s60-3" vertex="1">
          <mxGeometry y="55" width="140" height="26" as="geometry"/>
        </mxCell>
        <mxCell id="Z5buh7EiLKM07HB39s60-6" value="type_id" style="text;strokeColor=none;fillColor=none;align=left;verticalAlign=top;spacingLeft=4;spacingRight=4;overflow=hidden;rotatable=0;points=[[0,0.5],[1,0.5]];portConstraint=eastwest;" parent="Z5buh7EiLKM07HB39s60-3" vertex="1">
          <mxGeometry y="81" width="140" height="26" as="geometry"/>
        </mxCell>
        <mxCell id="Z5buh7EiLKM07HB39s60-7" value="amount" style="text;strokeColor=none;fillColor=none;align=left;verticalAlign=top;spacingLeft=4;spacingRight=4;overflow=hidden;rotatable=0;points=[[0,0.5],[1,0.5]];portConstraint=eastwest;" parent="Z5buh7EiLKM07HB39s60-3" vertex="1">
          <mxGeometry y="107" width="140" height="26" as="geometry"/>
        </mxCell>
        <mxCell id="Z5buh7EiLKM07HB39s60-8" value="verity" style="text;strokeColor=none;fillColor=none;align=left;verticalAlign=top;spacingLeft=4;spacingRight=4;overflow=hidden;rotatable=0;points=[[0,0.5],[1,0.5]];portConstraint=eastwest;" parent="Z5buh7EiLKM07HB39s60-3" vertex="1">
          <mxGeometry y="133" width="140" height="26" as="geometry"/>
        </mxCell>
        <mxCell id="Z5buh7EiLKM07HB39s60-9" value="test_number" style="text;strokeColor=none;fillColor=none;align=left;verticalAlign=top;spacingLeft=4;spacingRight=4;overflow=hidden;rotatable=0;points=[[0,0.5],[1,0.5]];portConstraint=eastwest;" parent="Z5buh7EiLKM07HB39s60-3" vertex="1">
          <mxGeometry y="159" width="140" height="26" as="geometry"/>
        </mxCell>
        <mxCell id="Z5buh7EiLKM07HB39s60-12" value="hw_image" style="swimlane;fontStyle=0;childLayout=stackLayout;horizontal=1;startSize=29;fillColor=#fad9d5;horizontalStack=0;resizeParent=1;resizeParentMax=0;resizeLast=0;collapsible=1;marginBottom=0;strokeColor=#ae4132;" parent="1" vertex="1">
          <mxGeometry x="1520" y="226" width="140" height="107" as="geometry"/>
        </mxCell>
        <mxCell id="Z5buh7EiLKM07HB39s60-13" value="+ image_id" style="text;strokeColor=none;fillColor=none;align=left;verticalAlign=top;spacingLeft=4;spacingRight=4;overflow=hidden;rotatable=0;points=[[0,0.5],[1,0.5]];portConstraint=eastwest;" parent="Z5buh7EiLKM07HB39s60-12" vertex="1">
          <mxGeometry y="29" width="140" height="26" as="geometry"/>
        </mxCell>
        <mxCell id="Z5buh7EiLKM07HB39s60-14" value="set_id&#xa;" style="text;strokeColor=none;fillColor=none;align=left;verticalAlign=top;spacingLeft=4;spacingRight=4;overflow=hidden;rotatable=0;points=[[0,0.5],[1,0.5]];portConstraint=eastwest;" parent="Z5buh7EiLKM07HB39s60-12" vertex="1">
          <mxGeometry y="55" width="140" height="26" as="geometry"/>
        </mxCell>
        <mxCell id="Z5buh7EiLKM07HB39s60-15" value="image_path" style="text;strokeColor=none;fillColor=none;align=left;verticalAlign=top;spacingLeft=4;spacingRight=4;overflow=hidden;rotatable=0;points=[[0,0.5],[1,0.5]];portConstraint=eastwest;" parent="Z5buh7EiLKM07HB39s60-12" vertex="1">
          <mxGeometry y="81" width="140" height="26" as="geometry"/>
        </mxCell>
        <mxCell id="Z5buh7EiLKM07HB39s60-19" style="edgeStyle=orthogonalEdgeStyle;rounded=0;orthogonalLoop=1;jettySize=auto;html=1;entryX=0;entryY=0.5;entryDx=0;entryDy=0;" parent="1" source="Z5buh7EiLKM07HB39s60-4" target="Z5buh7EiLKM07HB39s60-14" edge="1">
          <mxGeometry relative="1" as="geometry"/>
        </mxCell>
        <mxCell id="Z5buh7EiLKM07HB39s60-20" value="hw_type" style="swimlane;fontStyle=0;childLayout=stackLayout;horizontal=1;startSize=29;fillColor=#b0e3e6;horizontalStack=0;resizeParent=1;resizeParentMax=0;resizeLast=0;collapsible=1;marginBottom=0;strokeColor=#0e8088;" parent="1" vertex="1">
          <mxGeometry x="1720" y="229.5" width="140" height="81" as="geometry"/>
        </mxCell>
        <mxCell id="Z5buh7EiLKM07HB39s60-21" value="+ type_id" style="text;strokeColor=none;fillColor=none;align=left;verticalAlign=top;spacingLeft=4;spacingRight=4;overflow=hidden;rotatable=0;points=[[0,0.5],[1,0.5]];portConstraint=eastwest;" parent="Z5buh7EiLKM07HB39s60-20" vertex="1">
          <mxGeometry y="29" width="140" height="26" as="geometry"/>
        </mxCell>
        <mxCell id="Z5buh7EiLKM07HB39s60-22" value="type" style="text;strokeColor=none;fillColor=none;align=left;verticalAlign=top;spacingLeft=4;spacingRight=4;overflow=hidden;rotatable=0;points=[[0,0.5],[1,0.5]];portConstraint=eastwest;" parent="Z5buh7EiLKM07HB39s60-20" vertex="1">
          <mxGeometry y="55" width="140" height="26" as="geometry"/>
        </mxCell>
        <mxCell id="Z5buh7EiLKM07HB39s60-24" style="edgeStyle=orthogonalEdgeStyle;rounded=0;orthogonalLoop=1;jettySize=auto;html=1;entryX=1.008;entryY=0.765;entryDx=0;entryDy=0;entryPerimeter=0;" parent="1" source="Z5buh7EiLKM07HB39s60-21" target="Z5buh7EiLKM07HB39s60-6" edge="1">
          <mxGeometry relative="1" as="geometry"/>
        </mxCell>
        <mxCell id="Z5buh7EiLKM07HB39s60-25" value="hw_general_writing" style="swimlane;fontStyle=0;childLayout=stackLayout;horizontal=1;startSize=29;fillColor=#b0e3e6;horizontalStack=0;resizeParent=1;resizeParentMax=0;resizeLast=0;collapsible=1;marginBottom=0;strokeColor=#0e8088;" parent="1" vertex="1">
          <mxGeometry x="1720" y="30" width="140" height="185" as="geometry"/>
        </mxCell>
        <mxCell id="Z5buh7EiLKM07HB39s60-26" value="+ general_writing_id" style="text;strokeColor=none;fillColor=none;align=left;verticalAlign=top;spacingLeft=4;spacingRight=4;overflow=hidden;rotatable=0;points=[[0,0.5],[1,0.5]];portConstraint=eastwest;" parent="Z5buh7EiLKM07HB39s60-25" vertex="1">
          <mxGeometry y="29" width="140" height="26" as="geometry"/>
        </mxCell>
        <mxCell id="Z5buh7EiLKM07HB39s60-27" value="set_id" style="text;strokeColor=none;fillColor=none;align=left;verticalAlign=top;spacingLeft=4;spacingRight=4;overflow=hidden;rotatable=0;points=[[0,0.5],[1,0.5]];portConstraint=eastwest;" parent="Z5buh7EiLKM07HB39s60-25" vertex="1">
          <mxGeometry y="55" width="140" height="26" as="geometry"/>
        </mxCell>
        <mxCell id="Z5buh7EiLKM07HB39s60-28" value="comment" style="text;strokeColor=none;fillColor=none;align=left;verticalAlign=top;spacingLeft=4;spacingRight=4;overflow=hidden;rotatable=0;points=[[0,0.5],[1,0.5]];portConstraint=eastwest;" parent="Z5buh7EiLKM07HB39s60-25" vertex="1">
          <mxGeometry y="81" width="140" height="26" as="geometry"/>
        </mxCell>
        <mxCell id="Z5buh7EiLKM07HB39s60-29" value="general_sign_value_id" style="text;strokeColor=none;fillColor=none;align=left;verticalAlign=top;spacingLeft=4;spacingRight=4;overflow=hidden;rotatable=0;points=[[0,0.5],[1,0.5]];portConstraint=eastwest;" parent="Z5buh7EiLKM07HB39s60-25" vertex="1">
          <mxGeometry y="107" width="140" height="26" as="geometry"/>
        </mxCell>
        <mxCell id="Z5buh7EiLKM07HB39s60-30" value="amount_sign" style="text;strokeColor=none;fillColor=none;align=left;verticalAlign=top;spacingLeft=4;spacingRight=4;overflow=hidden;rotatable=0;points=[[0,0.5],[1,0.5]];portConstraint=eastwest;" parent="Z5buh7EiLKM07HB39s60-25" vertex="1">
          <mxGeometry y="133" width="140" height="26" as="geometry"/>
        </mxCell>
        <mxCell id="Z5buh7EiLKM07HB39s60-31" value="amount_all" style="text;strokeColor=none;fillColor=none;align=left;verticalAlign=top;spacingLeft=4;spacingRight=4;overflow=hidden;rotatable=0;points=[[0,0.5],[1,0.5]];portConstraint=eastwest;" parent="Z5buh7EiLKM07HB39s60-25" vertex="1">
          <mxGeometry y="159" width="140" height="26" as="geometry"/>
        </mxCell>
        <mxCell id="Z5buh7EiLKM07HB39s60-32" style="edgeStyle=orthogonalEdgeStyle;rounded=0;orthogonalLoop=1;jettySize=auto;html=1;entryX=0;entryY=0.5;entryDx=0;entryDy=0;" parent="1" source="Z5buh7EiLKM07HB39s60-4" target="Z5buh7EiLKM07HB39s60-27" edge="1">
          <mxGeometry relative="1" as="geometry"/>
        </mxCell>
        <mxCell id="Z5buh7EiLKM07HB39s60-33" value="hw_general_sign_value" style="swimlane;fontStyle=0;childLayout=stackLayout;horizontal=1;startSize=29;fillColor=#b0e3e6;horizontalStack=0;resizeParent=1;resizeParentMax=0;resizeLast=0;collapsible=1;marginBottom=0;strokeColor=#0e8088;" parent="1" vertex="1">
          <mxGeometry x="1900" y="30" width="170" height="133" as="geometry"/>
        </mxCell>
        <mxCell id="Z5buh7EiLKM07HB39s60-34" value="+ general_sign_value_id" style="text;strokeColor=none;fillColor=none;align=left;verticalAlign=top;spacingLeft=4;spacingRight=4;overflow=hidden;rotatable=0;points=[[0,0.5],[1,0.5]];portConstraint=eastwest;" parent="Z5buh7EiLKM07HB39s60-33" vertex="1">
          <mxGeometry y="29" width="170" height="26" as="geometry"/>
        </mxCell>
        <mxCell id="Z5buh7EiLKM07HB39s60-35" value="general_sign_type_id" style="text;strokeColor=none;fillColor=none;align=left;verticalAlign=top;spacingLeft=4;spacingRight=4;overflow=hidden;rotatable=0;points=[[0,0.5],[1,0.5]];portConstraint=eastwest;" parent="Z5buh7EiLKM07HB39s60-33" vertex="1">
          <mxGeometry y="55" width="170" height="26" as="geometry"/>
        </mxCell>
        <mxCell id="Z5buh7EiLKM07HB39s60-36" value="general_sign_value" style="text;strokeColor=none;fillColor=none;align=left;verticalAlign=top;spacingLeft=4;spacingRight=4;overflow=hidden;rotatable=0;points=[[0,0.5],[1,0.5]];portConstraint=eastwest;" parent="Z5buh7EiLKM07HB39s60-33" vertex="1">
          <mxGeometry y="81" width="170" height="26" as="geometry"/>
        </mxCell>
        <mxCell id="Z5buh7EiLKM07HB39s60-37" value="general_sign_value_number&#xa;&#xa;" style="text;strokeColor=none;fillColor=none;align=left;verticalAlign=top;spacingLeft=4;spacingRight=4;overflow=hidden;rotatable=0;points=[[0,0.5],[1,0.5]];portConstraint=eastwest;" parent="Z5buh7EiLKM07HB39s60-33" vertex="1">
          <mxGeometry y="107" width="170" height="26" as="geometry"/>
        </mxCell>
        <mxCell id="Z5buh7EiLKM07HB39s60-40" style="edgeStyle=orthogonalEdgeStyle;rounded=0;orthogonalLoop=1;jettySize=auto;html=1;entryX=1;entryY=0.5;entryDx=0;entryDy=0;" parent="1" source="Z5buh7EiLKM07HB39s60-34" target="Z5buh7EiLKM07HB39s60-29" edge="1">
          <mxGeometry relative="1" as="geometry"/>
        </mxCell>
        <mxCell id="Z5buh7EiLKM07HB39s60-41" value="hw_general_sign_type" style="swimlane;fontStyle=0;childLayout=stackLayout;horizontal=1;startSize=29;fillColor=#b0e3e6;horizontalStack=0;resizeParent=1;resizeParentMax=0;resizeLast=0;collapsible=1;marginBottom=0;strokeColor=#0e8088;" parent="1" vertex="1">
          <mxGeometry x="2110" y="30" width="170" height="107" as="geometry"/>
        </mxCell>
        <mxCell id="Z5buh7EiLKM07HB39s60-42" value="+ general_sign_type_id" style="text;strokeColor=none;fillColor=none;align=left;verticalAlign=top;spacingLeft=4;spacingRight=4;overflow=hidden;rotatable=0;points=[[0,0.5],[1,0.5]];portConstraint=eastwest;" parent="Z5buh7EiLKM07HB39s60-41" vertex="1">
          <mxGeometry y="29" width="170" height="26" as="geometry"/>
        </mxCell>
        <mxCell id="Z5buh7EiLKM07HB39s60-43" value="general_sign_type" style="text;strokeColor=none;fillColor=none;align=left;verticalAlign=top;spacingLeft=4;spacingRight=4;overflow=hidden;rotatable=0;points=[[0,0.5],[1,0.5]];portConstraint=eastwest;" parent="Z5buh7EiLKM07HB39s60-41" vertex="1">
          <mxGeometry y="55" width="170" height="26" as="geometry"/>
        </mxCell>
        <mxCell id="Z5buh7EiLKM07HB39s60-44" value="general_sign_type_number" style="text;strokeColor=none;fillColor=none;align=left;verticalAlign=top;spacingLeft=4;spacingRight=4;overflow=hidden;rotatable=0;points=[[0,0.5],[1,0.5]];portConstraint=eastwest;" parent="Z5buh7EiLKM07HB39s60-41" vertex="1">
          <mxGeometry y="81" width="170" height="26" as="geometry"/>
        </mxCell>
        <mxCell id="Z5buh7EiLKM07HB39s60-46" style="edgeStyle=orthogonalEdgeStyle;rounded=0;orthogonalLoop=1;jettySize=auto;html=1;entryX=1;entryY=0.5;entryDx=0;entryDy=0;" parent="1" source="Z5buh7EiLKM07HB39s60-42" target="Z5buh7EiLKM07HB39s60-35" edge="1">
          <mxGeometry relative="1" as="geometry"/>
        </mxCell>
        <mxCell id="Z5buh7EiLKM07HB39s60-47" value="hw_transcription" style="swimlane;fontStyle=0;childLayout=stackLayout;horizontal=1;startSize=29;fillColor=#fad7ac;horizontalStack=0;resizeParent=1;resizeParentMax=0;resizeLast=0;collapsible=1;marginBottom=0;strokeColor=#b46504;" parent="1" vertex="1">
          <mxGeometry x="1720" y="348" width="140" height="185" as="geometry"/>
        </mxCell>
        <mxCell id="Z5buh7EiLKM07HB39s60-48" value="+ transcription_id" style="text;strokeColor=none;fillColor=none;align=left;verticalAlign=top;spacingLeft=4;spacingRight=4;overflow=hidden;rotatable=0;points=[[0,0.5],[1,0.5]];portConstraint=eastwest;" parent="Z5buh7EiLKM07HB39s60-47" vertex="1">
          <mxGeometry y="29" width="140" height="26" as="geometry"/>
        </mxCell>
        <mxCell id="Z5buh7EiLKM07HB39s60-49" value="set_id" style="text;strokeColor=none;fillColor=none;align=left;verticalAlign=top;spacingLeft=4;spacingRight=4;overflow=hidden;rotatable=0;points=[[0,0.5],[1,0.5]];portConstraint=eastwest;" parent="Z5buh7EiLKM07HB39s60-47" vertex="1">
          <mxGeometry y="55" width="140" height="26" as="geometry"/>
        </mxCell>
        <mxCell id="Z5buh7EiLKM07HB39s60-50" value="letter_place" style="text;strokeColor=none;fillColor=none;align=left;verticalAlign=top;spacingLeft=4;spacingRight=4;overflow=hidden;rotatable=0;points=[[0,0.5],[1,0.5]];portConstraint=eastwest;" parent="Z5buh7EiLKM07HB39s60-47" vertex="1">
          <mxGeometry y="81" width="140" height="26" as="geometry"/>
        </mxCell>
        <mxCell id="Z5buh7EiLKM07HB39s60-51" value="link_next_id" style="text;strokeColor=none;fillColor=none;align=left;verticalAlign=top;spacingLeft=4;spacingRight=4;overflow=hidden;rotatable=0;points=[[0,0.5],[1,0.5]];portConstraint=eastwest;" parent="Z5buh7EiLKM07HB39s60-47" vertex="1">
          <mxGeometry y="107" width="140" height="26" as="geometry"/>
        </mxCell>
        <mxCell id="Z5buh7EiLKM07HB39s60-52" value="letter_id" style="text;strokeColor=none;fillColor=none;align=left;verticalAlign=top;spacingLeft=4;spacingRight=4;overflow=hidden;rotatable=0;points=[[0,0.5],[1,0.5]];portConstraint=eastwest;" parent="Z5buh7EiLKM07HB39s60-47" vertex="1">
          <mxGeometry y="133" width="140" height="26" as="geometry"/>
        </mxCell>
        <mxCell id="Z5buh7EiLKM07HB39s60-53" value="variant" style="text;strokeColor=none;fillColor=none;align=left;verticalAlign=top;spacingLeft=4;spacingRight=4;overflow=hidden;rotatable=0;points=[[0,0.5],[1,0.5]];portConstraint=eastwest;" parent="Z5buh7EiLKM07HB39s60-47" vertex="1">
          <mxGeometry y="159" width="140" height="26" as="geometry"/>
        </mxCell>
        <mxCell id="Z5buh7EiLKM07HB39s60-54" value="hw_link_next" style="swimlane;fontStyle=0;childLayout=stackLayout;horizontal=1;startSize=29;fillColor=#fad7ac;horizontalStack=0;resizeParent=1;resizeParentMax=0;resizeLast=0;collapsible=1;marginBottom=0;strokeColor=#b46504;" parent="1" vertex="1">
          <mxGeometry x="1520" y="387" width="140" height="81" as="geometry"/>
        </mxCell>
        <mxCell id="Z5buh7EiLKM07HB39s60-55" value="+ link_next_id" style="text;strokeColor=none;fillColor=none;align=left;verticalAlign=top;spacingLeft=4;spacingRight=4;overflow=hidden;rotatable=0;points=[[0,0.5],[1,0.5]];portConstraint=eastwest;" parent="Z5buh7EiLKM07HB39s60-54" vertex="1">
          <mxGeometry y="29" width="140" height="26" as="geometry"/>
        </mxCell>
        <mxCell id="Z5buh7EiLKM07HB39s60-56" value="link_next" style="text;strokeColor=none;fillColor=none;align=left;verticalAlign=top;spacingLeft=4;spacingRight=4;overflow=hidden;rotatable=0;points=[[0,0.5],[1,0.5]];portConstraint=eastwest;" parent="Z5buh7EiLKM07HB39s60-54" vertex="1">
          <mxGeometry y="55" width="140" height="26" as="geometry"/>
        </mxCell>
        <mxCell id="Z5buh7EiLKM07HB39s60-58" style="edgeStyle=orthogonalEdgeStyle;rounded=0;orthogonalLoop=1;jettySize=auto;html=1;entryX=0;entryY=0.5;entryDx=0;entryDy=0;" parent="1" source="Z5buh7EiLKM07HB39s60-55" target="Z5buh7EiLKM07HB39s60-51" edge="1">
          <mxGeometry relative="1" as="geometry"/>
        </mxCell>
        <mxCell id="Z5buh7EiLKM07HB39s60-59" value="hw_letter" style="swimlane;fontStyle=0;childLayout=stackLayout;horizontal=1;startSize=29;fillColor=#d0cee2;horizontalStack=0;resizeParent=1;resizeParentMax=0;resizeLast=0;collapsible=1;marginBottom=0;strokeColor=#56517e;" parent="1" vertex="1">
          <mxGeometry x="1500" y="626.5" width="140" height="107" as="geometry"/>
        </mxCell>
        <mxCell id="Z5buh7EiLKM07HB39s60-60" value="+ letter_id" style="text;strokeColor=none;fillColor=none;align=left;verticalAlign=top;spacingLeft=4;spacingRight=4;overflow=hidden;rotatable=0;points=[[0,0.5],[1,0.5]];portConstraint=eastwest;" parent="Z5buh7EiLKM07HB39s60-59" vertex="1">
          <mxGeometry y="29" width="140" height="26" as="geometry"/>
        </mxCell>
        <mxCell id="Z5buh7EiLKM07HB39s60-61" value="letter" style="text;strokeColor=none;fillColor=none;align=left;verticalAlign=top;spacingLeft=4;spacingRight=4;overflow=hidden;rotatable=0;points=[[0,0.5],[1,0.5]];portConstraint=eastwest;" parent="Z5buh7EiLKM07HB39s60-59" vertex="1">
          <mxGeometry y="55" width="140" height="26" as="geometry"/>
        </mxCell>
        <mxCell id="Z5buh7EiLKM07HB39s60-62" value="letter_number" style="text;strokeColor=none;fillColor=none;align=left;verticalAlign=top;spacingLeft=4;spacingRight=4;overflow=hidden;rotatable=0;points=[[0,0.5],[1,0.5]];portConstraint=eastwest;" parent="Z5buh7EiLKM07HB39s60-59" vertex="1">
          <mxGeometry y="81" width="140" height="26" as="geometry"/>
        </mxCell>
        <mxCell id="Z5buh7EiLKM07HB39s60-66" value="hw_letter_element" style="swimlane;fontStyle=0;childLayout=stackLayout;horizontal=1;startSize=29;fillColor=#d0cee2;horizontalStack=0;resizeParent=1;resizeParentMax=0;resizeLast=0;collapsible=1;marginBottom=0;strokeColor=#56517e;" parent="1" vertex="1">
          <mxGeometry x="1710" y="711" width="140" height="107" as="geometry"/>
        </mxCell>
        <mxCell id="Z5buh7EiLKM07HB39s60-67" value="+ letter_element_id" style="text;strokeColor=none;fillColor=none;align=left;verticalAlign=top;spacingLeft=4;spacingRight=4;overflow=hidden;rotatable=0;points=[[0,0.5],[1,0.5]];portConstraint=eastwest;" parent="Z5buh7EiLKM07HB39s60-66" vertex="1">
          <mxGeometry y="29" width="140" height="26" as="geometry"/>
        </mxCell>
        <mxCell id="Z5buh7EiLKM07HB39s60-68" value="letter_id" style="text;strokeColor=none;fillColor=none;align=left;verticalAlign=top;spacingLeft=4;spacingRight=4;overflow=hidden;rotatable=0;points=[[0,0.5],[1,0.5]];portConstraint=eastwest;" parent="Z5buh7EiLKM07HB39s60-66" vertex="1">
          <mxGeometry y="55" width="140" height="26" as="geometry"/>
        </mxCell>
        <mxCell id="Z5buh7EiLKM07HB39s60-69" value="element_id" style="text;strokeColor=none;fillColor=none;align=left;verticalAlign=top;spacingLeft=4;spacingRight=4;overflow=hidden;rotatable=0;points=[[0,0.5],[1,0.5]];portConstraint=eastwest;" parent="Z5buh7EiLKM07HB39s60-66" vertex="1">
          <mxGeometry y="81" width="140" height="26" as="geometry"/>
        </mxCell>
        <mxCell id="Z5buh7EiLKM07HB39s60-70" style="edgeStyle=orthogonalEdgeStyle;rounded=0;orthogonalLoop=1;jettySize=auto;html=1;entryX=0;entryY=0.5;entryDx=0;entryDy=0;" parent="1" source="Z5buh7EiLKM07HB39s60-60" target="Z5buh7EiLKM07HB39s60-52" edge="1">
          <mxGeometry relative="1" as="geometry"/>
        </mxCell>
        <mxCell id="Z5buh7EiLKM07HB39s60-71" style="edgeStyle=orthogonalEdgeStyle;rounded=0;orthogonalLoop=1;jettySize=auto;html=1;entryX=0;entryY=0.5;entryDx=0;entryDy=0;" parent="1" source="Z5buh7EiLKM07HB39s60-60" target="Z5buh7EiLKM07HB39s60-68" edge="1">
          <mxGeometry relative="1" as="geometry"/>
        </mxCell>
        <mxCell id="Z5buh7EiLKM07HB39s60-72" value="hw_element" style="swimlane;fontStyle=0;childLayout=stackLayout;horizontal=1;startSize=29;fillColor=#d0cee2;horizontalStack=0;resizeParent=1;resizeParentMax=0;resizeLast=0;collapsible=1;marginBottom=0;strokeColor=#56517e;" parent="1" vertex="1">
          <mxGeometry x="1510" y="775.5" width="140" height="107" as="geometry"/>
        </mxCell>
        <mxCell id="Z5buh7EiLKM07HB39s60-73" value="+ element_id" style="text;strokeColor=none;fillColor=none;align=left;verticalAlign=top;spacingLeft=4;spacingRight=4;overflow=hidden;rotatable=0;points=[[0,0.5],[1,0.5]];portConstraint=eastwest;" parent="Z5buh7EiLKM07HB39s60-72" vertex="1">
          <mxGeometry y="29" width="140" height="26" as="geometry"/>
        </mxCell>
        <mxCell id="Z5buh7EiLKM07HB39s60-74" value="element" style="text;strokeColor=none;fillColor=none;align=left;verticalAlign=top;spacingLeft=4;spacingRight=4;overflow=hidden;rotatable=0;points=[[0,0.5],[1,0.5]];portConstraint=eastwest;" parent="Z5buh7EiLKM07HB39s60-72" vertex="1">
          <mxGeometry y="55" width="140" height="26" as="geometry"/>
        </mxCell>
        <mxCell id="Z5buh7EiLKM07HB39s60-75" value="element_number" style="text;strokeColor=none;fillColor=none;align=left;verticalAlign=top;spacingLeft=4;spacingRight=4;overflow=hidden;rotatable=0;points=[[0,0.5],[1,0.5]];portConstraint=eastwest;" parent="Z5buh7EiLKM07HB39s60-72" vertex="1">
          <mxGeometry y="81" width="140" height="26" as="geometry"/>
        </mxCell>
        <mxCell id="Z5buh7EiLKM07HB39s60-76" style="edgeStyle=orthogonalEdgeStyle;rounded=0;orthogonalLoop=1;jettySize=auto;html=1;entryX=0;entryY=0.5;entryDx=0;entryDy=0;" parent="1" source="Z5buh7EiLKM07HB39s60-73" target="Z5buh7EiLKM07HB39s60-69" edge="1">
          <mxGeometry relative="1" as="geometry"/>
        </mxCell>
        <mxCell id="Z5buh7EiLKM07HB39s60-77" value="hw_letter_concretization" style="swimlane;fontStyle=0;childLayout=stackLayout;horizontal=1;startSize=29;fillColor=#d0cee2;horizontalStack=0;resizeParent=1;resizeParentMax=0;resizeLast=0;collapsible=1;marginBottom=0;strokeColor=#56517e;" parent="1" vertex="1">
          <mxGeometry x="1920" y="696.5" width="150" height="107" as="geometry"/>
        </mxCell>
        <mxCell id="Z5buh7EiLKM07HB39s60-78" value="+ letter_concretization_id" style="text;strokeColor=none;fillColor=none;align=left;verticalAlign=top;spacingLeft=4;spacingRight=4;overflow=hidden;rotatable=0;points=[[0,0.5],[1,0.5]];portConstraint=eastwest;" parent="Z5buh7EiLKM07HB39s60-77" vertex="1">
          <mxGeometry y="29" width="150" height="26" as="geometry"/>
        </mxCell>
        <mxCell id="Z5buh7EiLKM07HB39s60-79" value="letter_element_id" style="text;strokeColor=none;fillColor=none;align=left;verticalAlign=top;spacingLeft=4;spacingRight=4;overflow=hidden;rotatable=0;points=[[0,0.5],[1,0.5]];portConstraint=eastwest;" parent="Z5buh7EiLKM07HB39s60-77" vertex="1">
          <mxGeometry y="55" width="150" height="26" as="geometry"/>
        </mxCell>
        <mxCell id="Z5buh7EiLKM07HB39s60-80" value="concretization_id" style="text;strokeColor=none;fillColor=none;align=left;verticalAlign=top;spacingLeft=4;spacingRight=4;overflow=hidden;rotatable=0;points=[[0,0.5],[1,0.5]];portConstraint=eastwest;" parent="Z5buh7EiLKM07HB39s60-77" vertex="1">
          <mxGeometry y="81" width="150" height="26" as="geometry"/>
        </mxCell>
        <mxCell id="Z5buh7EiLKM07HB39s60-81" style="edgeStyle=orthogonalEdgeStyle;rounded=0;orthogonalLoop=1;jettySize=auto;html=1;entryX=0;entryY=0.5;entryDx=0;entryDy=0;" parent="1" source="Z5buh7EiLKM07HB39s60-67" target="Z5buh7EiLKM07HB39s60-79" edge="1">
          <mxGeometry relative="1" as="geometry"/>
        </mxCell>
        <mxCell id="Z5buh7EiLKM07HB39s60-82" value="hw_concretization" style="swimlane;fontStyle=0;childLayout=stackLayout;horizontal=1;startSize=29;fillColor=#d0cee2;horizontalStack=0;resizeParent=1;resizeParentMax=0;resizeLast=0;collapsible=1;marginBottom=0;strokeColor=#56517e;" parent="1" vertex="1">
          <mxGeometry x="1920" y="828" width="150" height="107" as="geometry"/>
        </mxCell>
        <mxCell id="Z5buh7EiLKM07HB39s60-83" value="+ concretization_id" style="text;strokeColor=none;fillColor=none;align=left;verticalAlign=top;spacingLeft=4;spacingRight=4;overflow=hidden;rotatable=0;points=[[0,0.5],[1,0.5]];portConstraint=eastwest;" parent="Z5buh7EiLKM07HB39s60-82" vertex="1">
          <mxGeometry y="29" width="150" height="26" as="geometry"/>
        </mxCell>
        <mxCell id="Z5buh7EiLKM07HB39s60-84" value="concretization" style="text;strokeColor=none;fillColor=none;align=left;verticalAlign=top;spacingLeft=4;spacingRight=4;overflow=hidden;rotatable=0;points=[[0,0.5],[1,0.5]];portConstraint=eastwest;" parent="Z5buh7EiLKM07HB39s60-82" vertex="1">
          <mxGeometry y="55" width="150" height="26" as="geometry"/>
        </mxCell>
        <mxCell id="Z5buh7EiLKM07HB39s60-85" value="concretization_number" style="text;strokeColor=none;fillColor=none;align=left;verticalAlign=top;spacingLeft=4;spacingRight=4;overflow=hidden;rotatable=0;points=[[0,0.5],[1,0.5]];portConstraint=eastwest;" parent="Z5buh7EiLKM07HB39s60-82" vertex="1">
          <mxGeometry y="81" width="150" height="26" as="geometry"/>
        </mxCell>
        <mxCell id="Z5buh7EiLKM07HB39s60-86" style="edgeStyle=orthogonalEdgeStyle;rounded=0;orthogonalLoop=1;jettySize=auto;html=1;entryX=0;entryY=0.5;entryDx=0;entryDy=0;" parent="1" source="Z5buh7EiLKM07HB39s60-83" target="Z5buh7EiLKM07HB39s60-80" edge="1">
          <mxGeometry relative="1" as="geometry"/>
        </mxCell>
        <mxCell id="Z5buh7EiLKM07HB39s60-87" value="hw_partial_writing" style="swimlane;fontStyle=0;childLayout=stackLayout;horizontal=1;startSize=29;fillColor=#fad7ac;horizontalStack=0;resizeParent=1;resizeParentMax=0;resizeLast=0;collapsible=1;marginBottom=0;strokeColor=#b46504;" parent="1" vertex="1">
          <mxGeometry x="1910" y="343" width="170" height="185" as="geometry"/>
        </mxCell>
        <mxCell id="Z5buh7EiLKM07HB39s60-88" value="+ partial_writing_id" style="text;strokeColor=none;fillColor=none;align=left;verticalAlign=top;spacingLeft=4;spacingRight=4;overflow=hidden;rotatable=0;points=[[0,0.5],[1,0.5]];portConstraint=eastwest;" parent="Z5buh7EiLKM07HB39s60-87" vertex="1">
          <mxGeometry y="29" width="170" height="26" as="geometry"/>
        </mxCell>
        <mxCell id="Z5buh7EiLKM07HB39s60-89" value="first_letter_transcription_id" style="text;strokeColor=none;fillColor=none;align=left;verticalAlign=top;spacingLeft=4;spacingRight=4;overflow=hidden;rotatable=0;points=[[0,0.5],[1,0.5]];portConstraint=eastwest;" parent="Z5buh7EiLKM07HB39s60-87" vertex="1">
          <mxGeometry y="55" width="170" height="26" as="geometry"/>
        </mxCell>
        <mxCell id="Z5buh7EiLKM07HB39s60-90" value="second_letter_transcription_id" style="text;strokeColor=none;fillColor=none;align=left;verticalAlign=top;spacingLeft=4;spacingRight=4;overflow=hidden;rotatable=0;points=[[0,0.5],[1,0.5]];portConstraint=eastwest;" parent="Z5buh7EiLKM07HB39s60-87" vertex="1">
          <mxGeometry y="81" width="170" height="26" as="geometry"/>
        </mxCell>
        <mxCell id="Z5buh7EiLKM07HB39s60-91" value="partial_sign_id" style="text;strokeColor=none;fillColor=none;align=left;verticalAlign=top;spacingLeft=4;spacingRight=4;overflow=hidden;rotatable=0;points=[[0,0.5],[1,0.5]];portConstraint=eastwest;" parent="Z5buh7EiLKM07HB39s60-87" vertex="1">
          <mxGeometry y="107" width="170" height="26" as="geometry"/>
        </mxCell>
        <mxCell id="Z5buh7EiLKM07HB39s60-92" value="amount_sign" style="text;strokeColor=none;fillColor=none;align=left;verticalAlign=top;spacingLeft=4;spacingRight=4;overflow=hidden;rotatable=0;points=[[0,0.5],[1,0.5]];portConstraint=eastwest;" parent="Z5buh7EiLKM07HB39s60-87" vertex="1">
          <mxGeometry y="133" width="170" height="26" as="geometry"/>
        </mxCell>
        <mxCell id="Z5buh7EiLKM07HB39s60-93" value="amount_all" style="text;strokeColor=none;fillColor=none;align=left;verticalAlign=top;spacingLeft=4;spacingRight=4;overflow=hidden;rotatable=0;points=[[0,0.5],[1,0.5]];portConstraint=eastwest;" parent="Z5buh7EiLKM07HB39s60-87" vertex="1">
          <mxGeometry y="159" width="170" height="26" as="geometry"/>
        </mxCell>
        <mxCell id="Z5buh7EiLKM07HB39s60-94" style="edgeStyle=orthogonalEdgeStyle;rounded=0;orthogonalLoop=1;jettySize=auto;html=1;entryX=0;entryY=0.5;entryDx=0;entryDy=0;" parent="1" source="Z5buh7EiLKM07HB39s60-48" target="Z5buh7EiLKM07HB39s60-89" edge="1">
          <mxGeometry relative="1" as="geometry"/>
        </mxCell>
        <mxCell id="Z5buh7EiLKM07HB39s60-96" style="edgeStyle=orthogonalEdgeStyle;rounded=0;orthogonalLoop=1;jettySize=auto;html=1;entryX=-0.011;entryY=0.691;entryDx=0;entryDy=0;entryPerimeter=0;" parent="1" source="Z5buh7EiLKM07HB39s60-48" target="Z5buh7EiLKM07HB39s60-90" edge="1">
          <mxGeometry relative="1" as="geometry"/>
        </mxCell>
        <mxCell id="Z5buh7EiLKM07HB39s60-97" value="hw_partial_sign" style="swimlane;fontStyle=0;childLayout=stackLayout;horizontal=1;startSize=29;fillColor=#bac8d3;horizontalStack=0;resizeParent=1;resizeParentMax=0;resizeLast=0;collapsible=1;marginBottom=0;strokeColor=#23445d;" parent="1" vertex="1">
          <mxGeometry x="2150" y="400" width="210" height="185" as="geometry"/>
        </mxCell>
        <mxCell id="Z5buh7EiLKM07HB39s60-98" value="+ partial_sign_id" style="text;strokeColor=none;fillColor=none;align=left;verticalAlign=top;spacingLeft=4;spacingRight=4;overflow=hidden;rotatable=0;points=[[0,0.5],[1,0.5]];portConstraint=eastwest;" parent="Z5buh7EiLKM07HB39s60-97" vertex="1">
          <mxGeometry y="29" width="210" height="26" as="geometry"/>
        </mxCell>
        <mxCell id="Z5buh7EiLKM07HB39s60-99" value="partial_sign_value_id" style="text;strokeColor=none;fillColor=none;align=left;verticalAlign=top;spacingLeft=4;spacingRight=4;overflow=hidden;rotatable=0;points=[[0,0.5],[1,0.5]];portConstraint=eastwest;" parent="Z5buh7EiLKM07HB39s60-97" vertex="1">
          <mxGeometry y="55" width="210" height="26" as="geometry"/>
        </mxCell>
        <mxCell id="Z5buh7EiLKM07HB39s60-100" value="partial_sign_value_concretization_id" style="text;strokeColor=none;fillColor=none;align=left;verticalAlign=top;spacingLeft=4;spacingRight=4;overflow=hidden;rotatable=0;points=[[0,0.5],[1,0.5]];portConstraint=eastwest;" parent="Z5buh7EiLKM07HB39s60-97" vertex="1">
          <mxGeometry y="81" width="210" height="26" as="geometry"/>
        </mxCell>
        <mxCell id="Z5buh7EiLKM07HB39s60-101" value="first_letter_concretization_id" style="text;strokeColor=none;fillColor=none;align=left;verticalAlign=top;spacingLeft=4;spacingRight=4;overflow=hidden;rotatable=0;points=[[0,0.5],[1,0.5]];portConstraint=eastwest;" parent="Z5buh7EiLKM07HB39s60-97" vertex="1">
          <mxGeometry y="107" width="210" height="26" as="geometry"/>
        </mxCell>
        <mxCell id="Z5buh7EiLKM07HB39s60-102" value="second_letter_concretization_id" style="text;strokeColor=none;fillColor=none;align=left;verticalAlign=top;spacingLeft=4;spacingRight=4;overflow=hidden;rotatable=0;points=[[0,0.5],[1,0.5]];portConstraint=eastwest;" parent="Z5buh7EiLKM07HB39s60-97" vertex="1">
          <mxGeometry y="133" width="210" height="26" as="geometry"/>
        </mxCell>
        <mxCell id="Z5buh7EiLKM07HB39s60-103" value="relation_between_concretizations&#xa;" style="text;strokeColor=none;fillColor=none;align=left;verticalAlign=top;spacingLeft=4;spacingRight=4;overflow=hidden;rotatable=0;points=[[0,0.5],[1,0.5]];portConstraint=eastwest;" parent="Z5buh7EiLKM07HB39s60-97" vertex="1">
          <mxGeometry y="159" width="210" height="26" as="geometry"/>
        </mxCell>
        <mxCell id="Z5buh7EiLKM07HB39s60-104" style="edgeStyle=orthogonalEdgeStyle;rounded=0;orthogonalLoop=1;jettySize=auto;html=1;entryX=0;entryY=0.5;entryDx=0;entryDy=0;" parent="1" source="Z5buh7EiLKM07HB39s60-78" target="Z5buh7EiLKM07HB39s60-101" edge="1">
          <mxGeometry relative="1" as="geometry"/>
        </mxCell>
        <mxCell id="Z5buh7EiLKM07HB39s60-105" style="edgeStyle=orthogonalEdgeStyle;rounded=0;orthogonalLoop=1;jettySize=auto;html=1;entryX=0;entryY=0.5;entryDx=0;entryDy=0;" parent="1" source="Z5buh7EiLKM07HB39s60-78" target="Z5buh7EiLKM07HB39s60-102" edge="1">
          <mxGeometry relative="1" as="geometry"/>
        </mxCell>
        <mxCell id="Z5buh7EiLKM07HB39s60-106" value="hw_partial_sign_value" style="swimlane;fontStyle=0;childLayout=stackLayout;horizontal=1;startSize=29;fillColor=#bac8d3;horizontalStack=0;resizeParent=1;resizeParentMax=0;resizeLast=0;collapsible=1;marginBottom=0;strokeColor=#23445d;" parent="1" vertex="1">
          <mxGeometry x="2420" y="379" width="170" height="133" as="geometry"/>
        </mxCell>
        <mxCell id="Z5buh7EiLKM07HB39s60-107" value="+ partial_sign_value_id" style="text;strokeColor=none;fillColor=none;align=left;verticalAlign=top;spacingLeft=4;spacingRight=4;overflow=hidden;rotatable=0;points=[[0,0.5],[1,0.5]];portConstraint=eastwest;" parent="Z5buh7EiLKM07HB39s60-106" vertex="1">
          <mxGeometry y="29" width="170" height="26" as="geometry"/>
        </mxCell>
        <mxCell id="Z5buh7EiLKM07HB39s60-108" value="partial_sign_type_id" style="text;strokeColor=none;fillColor=none;align=left;verticalAlign=top;spacingLeft=4;spacingRight=4;overflow=hidden;rotatable=0;points=[[0,0.5],[1,0.5]];portConstraint=eastwest;" parent="Z5buh7EiLKM07HB39s60-106" vertex="1">
          <mxGeometry y="55" width="170" height="26" as="geometry"/>
        </mxCell>
        <mxCell id="Z5buh7EiLKM07HB39s60-109" value="partial_sign_value" style="text;strokeColor=none;fillColor=none;align=left;verticalAlign=top;spacingLeft=4;spacingRight=4;overflow=hidden;rotatable=0;points=[[0,0.5],[1,0.5]];portConstraint=eastwest;" parent="Z5buh7EiLKM07HB39s60-106" vertex="1">
          <mxGeometry y="81" width="170" height="26" as="geometry"/>
        </mxCell>
        <mxCell id="Z5buh7EiLKM07HB39s60-110" value="partial_sign_value_number" style="text;strokeColor=none;fillColor=none;align=left;verticalAlign=top;spacingLeft=4;spacingRight=4;overflow=hidden;rotatable=0;points=[[0,0.5],[1,0.5]];portConstraint=eastwest;" parent="Z5buh7EiLKM07HB39s60-106" vertex="1">
          <mxGeometry y="107" width="170" height="26" as="geometry"/>
        </mxCell>
        <mxCell id="Z5buh7EiLKM07HB39s60-113" style="edgeStyle=orthogonalEdgeStyle;rounded=0;orthogonalLoop=1;jettySize=auto;html=1;entryX=1;entryY=0.5;entryDx=0;entryDy=0;" parent="1" source="Z5buh7EiLKM07HB39s60-107" target="Z5buh7EiLKM07HB39s60-99" edge="1">
          <mxGeometry relative="1" as="geometry"/>
        </mxCell>
        <mxCell id="Z5buh7EiLKM07HB39s60-114" value="hw_partial_sign_type" style="swimlane;fontStyle=0;childLayout=stackLayout;horizontal=1;startSize=29;fillColor=#bac8d3;horizontalStack=0;resizeParent=1;resizeParentMax=0;resizeLast=0;collapsible=1;marginBottom=0;strokeColor=#23445d;" parent="1" vertex="1">
          <mxGeometry x="2420" y="241" width="160" height="107" as="geometry"/>
        </mxCell>
        <mxCell id="Z5buh7EiLKM07HB39s60-115" value="+ partial_sign_type_id" style="text;strokeColor=none;fillColor=none;align=left;verticalAlign=top;spacingLeft=4;spacingRight=4;overflow=hidden;rotatable=0;points=[[0,0.5],[1,0.5]];portConstraint=eastwest;" parent="Z5buh7EiLKM07HB39s60-114" vertex="1">
          <mxGeometry y="29" width="160" height="26" as="geometry"/>
        </mxCell>
        <mxCell id="Z5buh7EiLKM07HB39s60-116" value="partial_sign_type" style="text;strokeColor=none;fillColor=none;align=left;verticalAlign=top;spacingLeft=4;spacingRight=4;overflow=hidden;rotatable=0;points=[[0,0.5],[1,0.5]];portConstraint=eastwest;" parent="Z5buh7EiLKM07HB39s60-114" vertex="1">
          <mxGeometry y="55" width="160" height="26" as="geometry"/>
        </mxCell>
        <mxCell id="Z5buh7EiLKM07HB39s60-117" value="partial_sign_type_number" style="text;strokeColor=none;fillColor=none;align=left;verticalAlign=top;spacingLeft=4;spacingRight=4;overflow=hidden;rotatable=0;points=[[0,0.5],[1,0.5]];portConstraint=eastwest;" parent="Z5buh7EiLKM07HB39s60-114" vertex="1">
          <mxGeometry y="81" width="160" height="26" as="geometry"/>
        </mxCell>
        <mxCell id="Z5buh7EiLKM07HB39s60-119" style="edgeStyle=orthogonalEdgeStyle;rounded=0;orthogonalLoop=1;jettySize=auto;html=1;entryX=1;entryY=0.5;entryDx=0;entryDy=0;" parent="1" source="Z5buh7EiLKM07HB39s60-115" target="Z5buh7EiLKM07HB39s60-108" edge="1">
          <mxGeometry relative="1" as="geometry"/>
        </mxCell>
        <mxCell id="Z5buh7EiLKM07HB39s60-120" value="hw_partial_sign_value_concretization" style="swimlane;fontStyle=0;childLayout=stackLayout;horizontal=1;startSize=29;fillColor=#bac8d3;horizontalStack=0;resizeParent=1;resizeParentMax=0;resizeLast=0;collapsible=1;marginBottom=0;strokeColor=#23445d;" parent="1" vertex="1">
          <mxGeometry x="2220" y="706" width="240" height="107" as="geometry"/>
        </mxCell>
        <mxCell id="Z5buh7EiLKM07HB39s60-121" value="+ partial_sign_value_concretization_id" style="text;strokeColor=none;fillColor=none;align=left;verticalAlign=top;spacingLeft=4;spacingRight=4;overflow=hidden;rotatable=0;points=[[0,0.5],[1,0.5]];portConstraint=eastwest;" parent="Z5buh7EiLKM07HB39s60-120" vertex="1">
          <mxGeometry y="29" width="240" height="26" as="geometry"/>
        </mxCell>
        <mxCell id="Z5buh7EiLKM07HB39s60-122" value="partial_sign_value_concretization" style="text;strokeColor=none;fillColor=none;align=left;verticalAlign=top;spacingLeft=4;spacingRight=4;overflow=hidden;rotatable=0;points=[[0,0.5],[1,0.5]];portConstraint=eastwest;" parent="Z5buh7EiLKM07HB39s60-120" vertex="1">
          <mxGeometry y="55" width="240" height="26" as="geometry"/>
        </mxCell>
        <mxCell id="Z5buh7EiLKM07HB39s60-123" value="partial_sign_value_concretization_number" style="text;strokeColor=none;fillColor=none;align=left;verticalAlign=top;spacingLeft=4;spacingRight=4;overflow=hidden;rotatable=0;points=[[0,0.5],[1,0.5]];portConstraint=eastwest;" parent="Z5buh7EiLKM07HB39s60-120" vertex="1">
          <mxGeometry y="81" width="240" height="26" as="geometry"/>
        </mxCell>
        <mxCell id="Z5buh7EiLKM07HB39s60-125" style="edgeStyle=orthogonalEdgeStyle;rounded=0;orthogonalLoop=1;jettySize=auto;html=1;entryX=1;entryY=0.5;entryDx=0;entryDy=0;" parent="1" source="Z5buh7EiLKM07HB39s60-121" target="Z5buh7EiLKM07HB39s60-100" edge="1">
          <mxGeometry relative="1" as="geometry"/>
        </mxCell>
        <mxCell id="Z5buh7EiLKM07HB39s60-126" style="edgeStyle=orthogonalEdgeStyle;rounded=0;orthogonalLoop=1;jettySize=auto;html=1;entryX=1;entryY=0.5;entryDx=0;entryDy=0;" parent="1" source="Z5buh7EiLKM07HB39s60-98" target="Z5buh7EiLKM07HB39s60-91" edge="1">
          <mxGeometry relative="1" as="geometry"/>
        </mxCell>
        <mxCell id="Z5buh7EiLKM07HB39s60-129" style="edgeStyle=orthogonalEdgeStyle;rounded=0;orthogonalLoop=1;jettySize=auto;html=1;entryX=1;entryY=0.5;entryDx=0;entryDy=0;dashed=1;" parent="1" source="Z5buh7EiLKM07HB39s60-128" target="Z5buh7EiLKM07HB39s60-121" edge="1">
          <mxGeometry relative="1" as="geometry"/>
        </mxCell>
        <mxCell id="Z5buh7EiLKM07HB39s60-128" value="&lt;div style=&quot;text-align: justify&quot;&gt;конкретизация значения частного признака&lt;/div&gt;" style="shape=note;whiteSpace=wrap;html=1;size=14;verticalAlign=top;align=left;spacingTop=-6;fillColor=#f5f5f5;strokeColor=#666666;fontColor=#333333;" parent="1" vertex="1">
          <mxGeometry x="2500" y="736.5" width="110" height="56" as="geometry"/>
        </mxCell>
        <mxCell id="Z5buh7EiLKM07HB39s60-131" style="edgeStyle=orthogonalEdgeStyle;rounded=0;orthogonalLoop=1;jettySize=auto;html=1;dashed=1;" parent="1" source="Z5buh7EiLKM07HB39s60-130" edge="1">
          <mxGeometry relative="1" as="geometry">
            <mxPoint x="2480" y="519.5" as="targetPoint"/>
          </mxGeometry>
        </mxCell>
        <mxCell id="Z5buh7EiLKM07HB39s60-130" value="&lt;div style=&quot;text-align: justify&quot;&gt;значение частного признака для определенной группы&lt;/div&gt;" style="shape=note;whiteSpace=wrap;html=1;size=14;verticalAlign=top;align=left;spacingTop=-6;fillColor=#f5f5f5;strokeColor=#666666;fontColor=#333333;" parent="1" vertex="1">
          <mxGeometry x="2460" y="557.5" width="90" height="82" as="geometry"/>
        </mxCell>
        <mxCell id="Z5buh7EiLKM07HB39s60-133" style="edgeStyle=orthogonalEdgeStyle;rounded=0;orthogonalLoop=1;jettySize=auto;html=1;dashed=1;" parent="1" source="Z5buh7EiLKM07HB39s60-132" edge="1">
          <mxGeometry relative="1" as="geometry">
            <mxPoint x="2505" y="239.49999999999977" as="targetPoint"/>
          </mxGeometry>
        </mxCell>
        <mxCell id="Z5buh7EiLKM07HB39s60-132" value="&lt;div&gt;группа частных признаков подписи/расшифровки&lt;/div&gt;" style="shape=note;whiteSpace=wrap;html=1;size=14;verticalAlign=top;align=left;spacingTop=-6;fillColor=#f5f5f5;strokeColor=#666666;fontColor=#333333;" parent="1" vertex="1">
          <mxGeometry x="2440" y="149.5" width="110" height="58" as="geometry"/>
        </mxCell>
        <mxCell id="Z5buh7EiLKM07HB39s60-135" style="edgeStyle=orthogonalEdgeStyle;rounded=0;orthogonalLoop=1;jettySize=auto;html=1;dashed=1;" parent="1" source="Z5buh7EiLKM07HB39s60-134" edge="1">
          <mxGeometry relative="1" as="geometry">
            <mxPoint x="2255" y="399.5" as="targetPoint"/>
          </mxGeometry>
        </mxCell>
        <mxCell id="Z5buh7EiLKM07HB39s60-134" value="&lt;div style=&quot;text-align: justify&quot;&gt;частный признак, описывающий взаимодействие двух буквенных конкретизаций транскрипции&lt;/div&gt;" style="shape=note;whiteSpace=wrap;html=1;size=14;verticalAlign=top;align=left;spacingTop=-6;fillColor=#f5f5f5;strokeColor=#666666;fontColor=#333333;" parent="1" vertex="1">
          <mxGeometry x="2207.5" y="259.5" width="95" height="111" as="geometry"/>
        </mxCell>
        <mxCell id="Z5buh7EiLKM07HB39s60-145" style="edgeStyle=orthogonalEdgeStyle;rounded=0;orthogonalLoop=1;jettySize=auto;html=1;entryX=1.019;entryY=0.071;entryDx=0;entryDy=0;entryPerimeter=0;dashed=1;" parent="1" source="Z5buh7EiLKM07HB39s60-136" target="Z5buh7EiLKM07HB39s60-43" edge="1">
          <mxGeometry relative="1" as="geometry"/>
        </mxCell>
        <mxCell id="Z5buh7EiLKM07HB39s60-136" value="&lt;div style=&quot;text-align: justify&quot;&gt;группа общих признаков подписи/расшифровки&lt;/div&gt;" style="shape=note;whiteSpace=wrap;html=1;size=14;verticalAlign=top;align=left;spacingTop=-6;fillColor=#f5f5f5;strokeColor=#666666;fontColor=#333333;" parent="1" vertex="1">
          <mxGeometry x="2330" y="43" width="90" height="60" as="geometry"/>
        </mxCell>
        <mxCell id="Z5buh7EiLKM07HB39s60-140" style="edgeStyle=orthogonalEdgeStyle;rounded=0;orthogonalLoop=1;jettySize=auto;html=1;dashed=1;entryX=1;entryY=0.5;entryDx=0;entryDy=0;" parent="1" source="Z5buh7EiLKM07HB39s60-138" target="Z5buh7EiLKM07HB39s60-37" edge="1">
          <mxGeometry relative="1" as="geometry">
            <mxPoint x="2030" y="159.49999999999977" as="targetPoint"/>
          </mxGeometry>
        </mxCell>
        <mxCell id="Z5buh7EiLKM07HB39s60-138" value="&lt;div&gt;значение общего признака для определенной группы&lt;/div&gt;" style="shape=note;whiteSpace=wrap;html=1;size=14;verticalAlign=top;align=left;spacingTop=-6;fillColor=#f5f5f5;strokeColor=#666666;fontColor=#333333;" parent="1" vertex="1">
          <mxGeometry x="2158" y="141.5" width="113" height="67" as="geometry"/>
        </mxCell>
        <mxCell id="Z5buh7EiLKM07HB39s60-142" style="edgeStyle=orthogonalEdgeStyle;rounded=0;orthogonalLoop=1;jettySize=auto;html=1;entryX=1;entryY=0.5;entryDx=0;entryDy=0;dashed=1;" parent="1" source="Z5buh7EiLKM07HB39s60-141" target="Z5buh7EiLKM07HB39s60-30" edge="1">
          <mxGeometry relative="1" as="geometry"/>
        </mxCell>
        <mxCell id="Z5buh7EiLKM07HB39s60-141" value="&lt;div style=&quot;text-align: justify&quot;&gt;значение и группа общего признака для конкретного набора подписей/расшифровок&lt;/div&gt;" style="shape=note;whiteSpace=wrap;html=1;size=14;verticalAlign=top;align=left;spacingTop=-6;fillColor=#f5f5f5;strokeColor=#666666;fontColor=#333333;" parent="1" vertex="1">
          <mxGeometry x="1900" y="172.5" width="150" height="72" as="geometry"/>
        </mxCell>
        <mxCell id="Z5buh7EiLKM07HB39s60-144" style="edgeStyle=orthogonalEdgeStyle;rounded=0;orthogonalLoop=1;jettySize=auto;html=1;dashed=1;" parent="1" source="Z5buh7EiLKM07HB39s60-143" edge="1">
          <mxGeometry relative="1" as="geometry">
            <mxPoint x="1870" y="279.4999999999998" as="targetPoint"/>
          </mxGeometry>
        </mxCell>
        <mxCell id="Z5buh7EiLKM07HB39s60-143" value="&lt;div style=&quot;text-align: justify&quot;&gt;тип набора:&lt;/div&gt;&lt;div style=&quot;text-align: justify&quot;&gt;- подпись&lt;/div&gt;&lt;div style=&quot;text-align: justify&quot;&gt;- расшифровка&lt;/div&gt;" style="shape=note;whiteSpace=wrap;html=1;size=14;verticalAlign=top;align=left;spacingTop=-6;fillColor=#f5f5f5;strokeColor=#666666;fontColor=#333333;" parent="1" vertex="1">
          <mxGeometry x="1900" y="264" width="150" height="60" as="geometry"/>
        </mxCell>
        <mxCell id="Z5buh7EiLKM07HB39s60-147" style="edgeStyle=orthogonalEdgeStyle;rounded=0;orthogonalLoop=1;jettySize=auto;html=1;dashed=1;" parent="1" source="Z5buh7EiLKM07HB39s60-146" edge="1">
          <mxGeometry relative="1" as="geometry">
            <mxPoint x="1790" y="539.5" as="targetPoint"/>
          </mxGeometry>
        </mxCell>
        <mxCell id="Z5buh7EiLKM07HB39s60-146" value="&lt;div style=&quot;text-align: justify&quot;&gt;транскрипция подписи/расшифровки&lt;/div&gt;" style="shape=note;whiteSpace=wrap;html=1;size=14;verticalAlign=top;align=left;spacingTop=-6;fillColor=#f5f5f5;strokeColor=#666666;fontColor=#333333;" parent="1" vertex="1">
          <mxGeometry x="1732.5" y="560" width="115" height="50" as="geometry"/>
        </mxCell>
        <mxCell id="Z5buh7EiLKM07HB39s60-149" style="edgeStyle=orthogonalEdgeStyle;rounded=0;orthogonalLoop=1;jettySize=auto;html=1;dashed=1;" parent="1" source="Z5buh7EiLKM07HB39s60-148" edge="1">
          <mxGeometry relative="1" as="geometry">
            <mxPoint x="1582.5" y="469.5" as="targetPoint"/>
          </mxGeometry>
        </mxCell>
        <mxCell id="Z5buh7EiLKM07HB39s60-148" value="&lt;div style=&quot;text-align: justify&quot;&gt;тип связи между буквами/букв. элементами&lt;/div&gt;" style="shape=note;whiteSpace=wrap;html=1;size=14;verticalAlign=top;align=left;spacingTop=-6;fillColor=#f5f5f5;strokeColor=#666666;fontColor=#333333;" parent="1" vertex="1">
          <mxGeometry x="1525" y="500.5" width="115" height="50" as="geometry"/>
        </mxCell>
        <mxCell id="Z5buh7EiLKM07HB39s60-153" style="edgeStyle=orthogonalEdgeStyle;rounded=0;orthogonalLoop=1;jettySize=auto;html=1;dashed=1;" parent="1" source="Z5buh7EiLKM07HB39s60-150" edge="1">
          <mxGeometry relative="1" as="geometry">
            <mxPoint x="1995" y="529.5" as="targetPoint"/>
          </mxGeometry>
        </mxCell>
        <mxCell id="Z5buh7EiLKM07HB39s60-150" value="&lt;div&gt;связь конкретного частного признака с элементами транскрипции&lt;/div&gt;&lt;div&gt;&lt;br&gt;&lt;/div&gt;&lt;div&gt;amount_sign - в скольких образцах набора данный&lt;span&gt;&amp;nbsp;признак проявился&lt;/span&gt;&lt;/div&gt;" style="shape=note;whiteSpace=wrap;html=1;size=14;verticalAlign=top;align=left;spacingTop=-6;fillColor=#f5f5f5;strokeColor=#666666;fontColor=#333333;" parent="1" vertex="1">
          <mxGeometry x="1920" y="549.5" width="150" height="131" as="geometry"/>
        </mxCell>
        <mxCell id="Z5buh7EiLKM07HB39s60-155" style="edgeStyle=orthogonalEdgeStyle;rounded=0;orthogonalLoop=1;jettySize=auto;html=1;dashed=1;" parent="1" source="Z5buh7EiLKM07HB39s60-154" edge="1">
          <mxGeometry relative="1" as="geometry">
            <mxPoint x="1777.5" y="819.5" as="targetPoint"/>
          </mxGeometry>
        </mxCell>
        <mxCell id="Z5buh7EiLKM07HB39s60-154" value="&lt;div style=&quot;text-align: justify&quot;&gt;связь буквы и буквенного элемента&lt;/div&gt;" style="shape=note;whiteSpace=wrap;html=1;size=14;verticalAlign=top;align=left;spacingTop=-6;fillColor=#f5f5f5;strokeColor=#666666;fontColor=#333333;" parent="1" vertex="1">
          <mxGeometry x="1720" y="857.5" width="115" height="50" as="geometry"/>
        </mxCell>
        <mxCell id="Z5buh7EiLKM07HB39s60-159" style="edgeStyle=orthogonalEdgeStyle;rounded=0;orthogonalLoop=1;jettySize=auto;html=1;dashed=1;" parent="1" source="Z5buh7EiLKM07HB39s60-156" edge="1">
          <mxGeometry relative="1" as="geometry">
            <mxPoint x="1585" y="889.5" as="targetPoint"/>
          </mxGeometry>
        </mxCell>
        <mxCell id="Z5buh7EiLKM07HB39s60-156" value="&lt;div style=&quot;text-align: justify&quot;&gt;буквенный элемент&lt;/div&gt;" style="shape=note;whiteSpace=wrap;html=1;size=14;verticalAlign=top;align=left;spacingTop=-6;fillColor=#f5f5f5;strokeColor=#666666;fontColor=#333333;" parent="1" vertex="1">
          <mxGeometry x="1520" y="914.5" width="130" height="25" as="geometry"/>
        </mxCell>
        <mxCell id="Z5buh7EiLKM07HB39s60-161" style="edgeStyle=orthogonalEdgeStyle;rounded=0;orthogonalLoop=1;jettySize=auto;html=1;dashed=1;" parent="1" source="Z5buh7EiLKM07HB39s60-160" edge="1">
          <mxGeometry relative="1" as="geometry">
            <mxPoint x="2080" y="914.5" as="targetPoint"/>
          </mxGeometry>
        </mxCell>
        <mxCell id="Z5buh7EiLKM07HB39s60-160" value="&lt;div style=&quot;text-align: justify&quot;&gt;конкретизация буквенного элемента&lt;/div&gt;" style="shape=note;whiteSpace=wrap;html=1;size=14;verticalAlign=top;align=left;spacingTop=-6;fillColor=#f5f5f5;strokeColor=#666666;fontColor=#333333;" parent="1" vertex="1">
          <mxGeometry x="2100" y="889.5" width="115" height="50" as="geometry"/>
        </mxCell>
        <mxCell id="Z5buh7EiLKM07HB39s60-163" style="edgeStyle=orthogonalEdgeStyle;rounded=0;orthogonalLoop=1;jettySize=auto;html=1;entryX=1;entryY=0.5;entryDx=0;entryDy=0;dashed=1;" parent="1" source="Z5buh7EiLKM07HB39s60-162" target="Z5buh7EiLKM07HB39s60-79" edge="1">
          <mxGeometry relative="1" as="geometry"/>
        </mxCell>
        <mxCell id="Z5buh7EiLKM07HB39s60-162" value="&lt;div&gt;связь букв. элемента с его конкретизацией&lt;/div&gt;" style="shape=note;whiteSpace=wrap;html=1;size=14;verticalAlign=top;align=left;spacingTop=-6;fillColor=#f5f5f5;strokeColor=#666666;fontColor=#333333;" parent="1" vertex="1">
          <mxGeometry x="2093" y="788.5" width="108" height="50" as="geometry"/>
        </mxCell>
        <mxCell id="_WPMcELmz1p9DhctICJd-14" value="Какой вопрос &lt;br&gt;к какой шкале относится" style="shape=note;whiteSpace=wrap;html=1;size=14;verticalAlign=top;align=left;spacingTop=-6;fillColor=#f5f5f5;strokeColor=#666666;fontColor=#333333;" parent="1" vertex="1">
          <mxGeometry x="-123.5" y="103" width="90" height="70" as="geometry"/>
        </mxCell>
        <mxCell id="_WPMcELmz1p9DhctICJd-34" style="edgeStyle=orthogonalEdgeStyle;rounded=0;orthogonalLoop=1;jettySize=auto;html=1;startArrow=ERzeroToMany;startFill=1;endArrow=ERone;endFill=0;strokeWidth=1;" parent="1" source="yYKGKoS039EIgSRdd9-Q-18" target="yYKGKoS039EIgSRdd9-Q-20" edge="1">
          <mxGeometry relative="1" as="geometry"/>
        </mxCell>
        <mxCell id="_WPMcELmz1p9DhctICJd-41" style="edgeStyle=orthogonalEdgeStyle;rounded=0;orthogonalLoop=1;jettySize=auto;html=1;startArrow=ERzeroToMany;startFill=1;endArrow=ERone;endFill=0;strokeWidth=1;" parent="1" source="z2BmbQ6l0MY7L84lB-eh-7" target="z2BmbQ6l0MY7L84lB-eh-9" edge="1">
          <mxGeometry relative="1" as="geometry"/>
        </mxCell>
        <mxCell id="_WPMcELmz1p9DhctICJd-43" style="edgeStyle=orthogonalEdgeStyle;rounded=0;orthogonalLoop=1;jettySize=auto;html=1;startArrow=ERzeroToMany;startFill=1;endArrow=ERone;endFill=0;strokeWidth=1;" parent="1" source="yYKGKoS039EIgSRdd9-Q-51" target="yYKGKoS039EIgSRdd9-Q-24" edge="1">
          <mxGeometry relative="1" as="geometry"/>
        </mxCell>
        <mxCell id="_WPMcELmz1p9DhctICJd-44" style="edgeStyle=orthogonalEdgeStyle;rounded=0;orthogonalLoop=1;jettySize=auto;html=1;startArrow=ERzeroToMany;startFill=1;endArrow=ERone;endFill=0;strokeWidth=1;" parent="1" source="yYKGKoS039EIgSRdd9-Q-49" target="yYKGKoS039EIgSRdd9-Q-53" edge="1">
          <mxGeometry relative="1" as="geometry"/>
        </mxCell>
        <mxCell id="_WPMcELmz1p9DhctICJd-48" style="edgeStyle=orthogonalEdgeStyle;rounded=0;orthogonalLoop=1;jettySize=auto;html=1;startArrow=ERzeroToMany;startFill=1;endArrow=ERone;endFill=0;strokeWidth=1;" parent="1" source="yYKGKoS039EIgSRdd9-Q-33" target="yYKGKoS039EIgSRdd9-Q-38" edge="1">
          <mxGeometry relative="1" as="geometry"/>
        </mxCell>
        <mxCell id="_WPMcELmz1p9DhctICJd-53" style="edgeStyle=orthogonalEdgeStyle;rounded=0;orthogonalLoop=1;jettySize=auto;html=1;startArrow=ERzeroToMany;startFill=1;endArrow=ERone;endFill=0;strokeWidth=1;" parent="1" source="z2BmbQ6l0MY7L84lB-eh-18" target="yYKGKoS039EIgSRdd9-Q-68" edge="1">
          <mxGeometry relative="1" as="geometry"/>
        </mxCell>
        <mxCell id="_WPMcELmz1p9DhctICJd-54" style="edgeStyle=orthogonalEdgeStyle;rounded=0;orthogonalLoop=1;jettySize=auto;html=1;startArrow=ERzeroToMany;startFill=1;endArrow=ERone;endFill=0;strokeWidth=1;" parent="1" source="z2BmbQ6l0MY7L84lB-eh-21" target="z2BmbQ6l0MY7L84lB-eh-13" edge="1">
          <mxGeometry relative="1" as="geometry"/>
        </mxCell>
        <mxCell id="_WPMcELmz1p9DhctICJd-58" style="edgeStyle=orthogonalEdgeStyle;rounded=0;orthogonalLoop=1;jettySize=auto;html=1;startArrow=ERone;startFill=0;endArrow=ERone;endFill=0;strokeWidth=1;" parent="1" source="yYKGKoS039EIgSRdd9-Q-60" target="yYKGKoS039EIgSRdd9-Q-24" edge="1">
          <mxGeometry relative="1" as="geometry">
            <Array as="points">
              <mxPoint x="420" y="515"/>
              <mxPoint x="420" y="469"/>
            </Array>
          </mxGeometry>
        </mxCell>
        <mxCell id="_WPMcELmz1p9DhctICJd-62" style="edgeStyle=orthogonalEdgeStyle;rounded=0;orthogonalLoop=1;jettySize=auto;html=1;startArrow=ERone;startFill=0;endArrow=ERzeroToMany;endFill=1;strokeWidth=1;" parent="1" source="z2BmbQ6l0MY7L84lB-eh-5" target="z2BmbQ6l0MY7L84lB-eh-36" edge="1">
          <mxGeometry relative="1" as="geometry">
            <Array as="points">
              <mxPoint x="306" y="258"/>
              <mxPoint x="306" y="109"/>
            </Array>
          </mxGeometry>
        </mxCell>
        <mxCell id="_WPMcELmz1p9DhctICJd-64" style="edgeStyle=orthogonalEdgeStyle;rounded=0;orthogonalLoop=1;jettySize=auto;html=1;startArrow=ERone;startFill=0;endArrow=ERzeroToMany;endFill=1;strokeWidth=1;" parent="1" source="z2BmbQ6l0MY7L84lB-eh-40" target="z2BmbQ6l0MY7L84lB-eh-37" edge="1">
          <mxGeometry relative="1" as="geometry"/>
        </mxCell>
        <mxCell id="_WPMcELmz1p9DhctICJd-65" style="edgeStyle=orthogonalEdgeStyle;rounded=0;orthogonalLoop=1;jettySize=auto;html=1;startArrow=ERone;startFill=0;endArrow=ERzeroToMany;endFill=1;strokeWidth=1;" parent="1" source="yYKGKoS039EIgSRdd9-Q-3" target="z2BmbQ6l0MY7L84lB-eh-54" edge="1">
          <mxGeometry relative="1" as="geometry"/>
        </mxCell>
        <mxCell id="_WPMcELmz1p9DhctICJd-66" style="edgeStyle=orthogonalEdgeStyle;rounded=0;orthogonalLoop=1;jettySize=auto;html=1;startArrow=ERone;startFill=0;endArrow=ERzeroToMany;endFill=1;strokeWidth=1;" parent="1" source="z2BmbQ6l0MY7L84lB-eh-5" target="yYKGKoS039EIgSRdd9-Q-17" edge="1">
          <mxGeometry relative="1" as="geometry"/>
        </mxCell>
        <mxCell id="_WPMcELmz1p9DhctICJd-68" style="edgeStyle=orthogonalEdgeStyle;rounded=0;orthogonalLoop=1;jettySize=auto;html=1;startArrow=ERone;startFill=0;endArrow=ERzeroToMany;endFill=1;strokeWidth=1;" parent="1" source="z2BmbQ6l0MY7L84lB-eh-13" target="z2BmbQ6l0MY7L84lB-eh-28" edge="1">
          <mxGeometry relative="1" as="geometry">
            <mxPoint x="960" y="340" as="targetPoint"/>
          </mxGeometry>
        </mxCell>
        <mxCell id="_WPMcELmz1p9DhctICJd-69" style="edgeStyle=orthogonalEdgeStyle;rounded=0;orthogonalLoop=1;jettySize=auto;html=1;startArrow=ERone;startFill=0;endArrow=ERzeroToMany;endFill=1;strokeWidth=1;" parent="1" source="z2BmbQ6l0MY7L84lB-eh-33" target="z2BmbQ6l0MY7L84lB-eh-29" edge="1">
          <mxGeometry relative="1" as="geometry"/>
        </mxCell>
        <mxCell id="_WPMcELmz1p9DhctICJd-70" style="edgeStyle=orthogonalEdgeStyle;rounded=0;orthogonalLoop=1;jettySize=auto;html=1;startArrow=ERone;startFill=0;endArrow=ERzeroToMany;endFill=1;strokeWidth=1;" parent="1" source="yYKGKoS039EIgSRdd9-Q-43" target="yYKGKoS039EIgSRdd9-Q-34" edge="1">
          <mxGeometry relative="1" as="geometry"/>
        </mxCell>
        <mxCell id="_WPMcELmz1p9DhctICJd-73" style="edgeStyle=orthogonalEdgeStyle;rounded=0;orthogonalLoop=1;jettySize=auto;html=1;startArrow=ERone;startFill=0;endArrow=ERzeroToMany;endFill=1;strokeWidth=1;" parent="1" source="yYKGKoS039EIgSRdd9-Q-20" target="yYKGKoS039EIgSRdd9-Q-25" edge="1">
          <mxGeometry relative="1" as="geometry"/>
        </mxCell>
        <mxCell id="_WPMcELmz1p9DhctICJd-75" style="edgeStyle=orthogonalEdgeStyle;rounded=0;orthogonalLoop=1;jettySize=auto;html=1;startArrow=ERone;startFill=0;endArrow=ERzeroToMany;endFill=1;strokeWidth=1;" parent="1" source="yYKGKoS039EIgSRdd9-Q-32" target="yYKGKoS039EIgSRdd9-Q-27" edge="1">
          <mxGeometry relative="1" as="geometry"/>
        </mxCell>
      </root>
    </mxGraphModel>
  </diagram>
</mxfile>
